<?xml version="1.0" encoding="UTF-8" standalone="no"?>
<svg xmlns="http://www.w3.org/2000/svg" version="1.2" baseProfile="tiny" viewBox="0.00 0.00 710.00 466.00">
<rect fill="#f9e987" x="351.16" y="86.33" width="11.74" height="29.90" rx="5.64"/>
<rect fill="#f9e987" x="-15.01" y="-5.68" transform="translate(411.05,123.44) rotate(-44.9)" width="30.02" height="11.36" rx="5.50"/>
<rect fill="#f9e987" x="-5.59" y="-14.91" transform="translate(302.92,123.69) rotate(-44.5)" width="11.18" height="29.82" rx="5.36"/>
<path fill="#f9e987" d="
  M 427.95 235.48
  Q 427.23 237.64 427.65 239.92
  A 3.07 3.06 69.8 0 1 426.17 243.14
  Q 423.31 244.78 421.40 241.67
  Q 421.12 241.21 421.04 240.67
  L 420.91 239.67
  Q 420.81 239.00 420.14 239.03
  Q 407.34 239.71 401.71 228.44
  Q 401.49 227.99 400.98 227.99
  Q 378.42 228.00 355.74 227.94
  Q 345.62 227.92 336.27 223.66
  C 313.49 213.28 301.40 187.99 308.10 163.71
  Q 313.98 142.41 334.78 131.76
  C 342.68 127.72 350.92 126.41 360.30 126.87
  C 369.93 127.33 378.63 130.20 386.28 135.69
  Q 407.44 150.89 408.19 177.23
  Q 408.25 179.44 406.73 180.96
  Q 402.40 185.31 398.15 180.80
  C 396.92 179.49 397.06 178.38 396.95 176.71
  C 395.79 159.43 385.86 145.07 369.38 139.66
  C 341.53 130.52 312.99 154.06 317.58 183.29
  C 320.06 199.02 332.11 212.14 347.75 215.88
  Q 352.51 217.01 362.82 217.01
  Q 381.81 217.01 400.79 216.99
  Q 401.29 216.99 401.53 216.55
  Q 407.05 206.17 419.75 206.19
  Q 421.46 206.19 420.97 204.27
  Q 420.83 203.76 421.20 203.38
  Q 423.88 200.60 426.75 203.21
  Q 427.11 203.53 427.12 204.01
  L 427.31 209.18
  A 1.88 1.88 0.0 0 0 429.19 211.00
  L 437.12 210.99
  Q 439.92 210.99 439.45 213.75
  Q 439.04 216.13 436.50 215.99
  Q 432.74 215.79 428.81 215.73
  A 1.52 1.51 0.4 0 0 427.26 217.25
  L 427.29 227.93
  A 1.15 1.15 0.0 0 0 428.50 229.08
  C 431.77 228.91 438.32 227.90 439.65 231.90
  Q 439.81 232.38 439.55 232.82
  C 437.58 236.11 431.86 234.91 428.59 235.01
  Q 428.11 235.02 427.95 235.48
  Z"
/>
<rect fill="#f9e987" x="-15.28" y="-5.48" transform="translate(280.38,177.51) rotate(-0.1)" width="30.56" height="10.96" rx="5.29"/>
<rect fill="#f9e987" x="-5.58" y="-15.06" transform="translate(302.76,231.52) rotate(44.9)" width="11.16" height="30.12" rx="5.40"/>
<path fill="#ffffff" d="
  M 157.30 352.45
  A 1.74 1.70 -72.6 0 0 160.00 351.00
  L 160.00 330.74
  A 1.74 1.74 0.0 0 0 158.23 329.00
  Q 151.11 329.09 143.76 328.80
  C 135.32 328.48 134.00 323.23 134.00 315.64
  Q 133.99 301.05 133.99 286.49
  Q 134.00 278.13 135.37 275.19
  Q 138.16 269.21 146.26 268.58
  Q 160.87 267.45 175.51 268.41
  Q 176.07 268.44 176.38 268.92
  Q 177.26 270.28 177.61 272.77
  Q 178.62 279.93 180.16 286.84
  A 0.95 0.94 83.6 0 1 179.24 288.00
  L 156.50 288.00
  A 2.47 2.47 0.0 0 0 154.03 290.47
  Q 154.01 298.50 154.01 307.40
  C 154.01 309.72 154.54 311.99 157.29 311.56
  C 162.78 310.71 168.79 311.24 174.24 312.14
  C 180.26 313.13 180.76 320.02 180.81 324.88
  Q 180.97 339.78 180.81 354.68
  C 180.78 357.13 180.19 359.74 179.98 362.38
  C 179.46 369.01 173.32 371.83 166.99 371.92
  Q 153.20 372.10 139.84 371.96
  A 1.01 1.00 -4.9 0 1 138.86 371.14
  L 135.58 353.98
  A 1.40 1.40 0.0 0 1 137.08 352.32
  Q 146.63 353.15 156.10 352.04
  Q 156.64 351.98 157.09 352.30
  L 157.30 352.45
  Z"
/>
<path fill="#ffffff" d="
  M 226.25 268.25
  Q 230.24 268.19 234.08 269.34
  C 240.75 271.32 242.92 276.14 242.95 282.75
  Q 243.10 320.06 242.91 357.38
  Q 242.83 371.52 228.99 371.79
  Q 217.66 372.01 206.32 372.01
  Q 199.09 372.01 195.89 370.50
  Q 189.06 367.27 189.04 358.50
  Q 188.96 321.49 189.03 284.48
  C 189.05 274.88 192.07 269.12 202.59 268.70
  Q 215.44 268.19 221.75 268.30
  Q 221.85 268.30 226.25 268.25
  Z
  M 221.96 289.10
  A 2.14 2.14 0.0 0 0 219.82 286.96
  L 212.14 286.96
  A 2.14 2.14 0.0 0 0 210.00 289.10
  L 210.00 351.80
  A 2.14 2.14 0.0 0 0 212.14 353.94
  L 219.82 353.94
  A 2.14 2.14 0.0 0 0 221.96 351.80
  L 221.96 289.10
  Z"
/>
<path fill="#ffffff" d="
  M 273.68 352.60
  L 291.71 352.11
  A 1.79 1.78 -85.5 0 1 293.51 354.22
  L 290.30 371.51
  Q 290.21 372.00 289.71 372.00
  L 252.06 372.00
  A 0.69 0.69 0.0 0 1 251.37 371.31
  L 251.49 269.72
  Q 251.50 269.17 251.98 268.91
  C 253.34 268.20 255.31 268.61 256.45 268.48
  Q 259.52 268.11 262.63 268.67
  A 2.05 2.00 -48.0 0 0 263.60 268.61
  Q 266.51 267.68 269.39 268.59
  Q 269.92 268.76 270.47 268.62
  L 272.25 268.18
  A 0.60 0.60 0.0 0 1 273.00 268.76
  L 273.00 351.93
  Q 273.00 352.61 273.68 352.60
  Z"
/>
<path fill="#ffffff" d="
  M 334.36 359.72
  Q 330.55 359.12 326.67 359.65
  Q 326.14 359.72 325.67 359.46
  L 325.25 359.22
  A 0.66 0.65 -55.7 0 0 324.42 359.38
  Q 323.51 360.55 322.57 359.44
  Q 322.22 359.02 321.80 359.37
  C 320.68 360.29 320.03 361.12 320.05 362.68
  Q 320.11 367.21 318.86 371.53
  Q 318.72 372.01 318.22 372.01
  L 298.52 371.99
  A 0.62 0.62 0.0 0 1 297.91 371.26
  L 316.25 270.25
  A 2.29 2.28 -87.0 0 1 318.31 268.39
  Q 322.53 268.03 326.38 268.21
  Q 327.97 268.28 332.58 268.05
  Q 335.49 267.90 338.40 268.46
  Q 338.98 268.57 339.08 269.14
  L 357.58 371.26
  Q 357.72 372.00 356.97 372.00
  L 337.02 372.00
  Q 336.52 372.00 336.45 371.50
  L 334.86 360.23
  Q 334.80 359.79 334.36 359.72
  Z
  M 324.89 330.13
  C 324.53 333.98 323.67 337.97 322.98 341.87
  A 0.46 0.45 4.8 0 0 323.43 342.40
  L 331.38 342.48
  Q 331.88 342.49 331.97 341.99
  Q 332.34 339.98 332.03 338.48
  Q 330.32 330.00 329.60 321.39
  C 329.27 317.54 328.44 313.69 327.96 309.91
  Q 327.83 308.82 327.64 309.90
  Q 325.87 319.90 324.89 330.13
  Z"
/>
<path fill="#ffffff" d="
  M 408.47 339.16
  Q 407.46 339.27 407.78 340.24
  L 417.97 370.99
  A 0.77 0.77 0.0 0 1 417.24 372.00
  L 397.87 371.99
  A 1.74 1.73 -8.3 0 1 396.21 370.76
  L 386.72 339.53
  A 0.96 0.95 84.0 0 0 385.90 338.86
  Q 384.07 338.66 384.07 340.50
  Q 384.05 356.00 383.96 371.51
  A 0.49 0.48 -90.0 0 1 383.48 372.00
  L 363.68 372.00
  Q 363.10 372.00 363.10 371.43
  L 362.95 269.80
  A 1.10 1.09 -2.3 0 1 363.96 268.71
  C 367.62 268.43 371.26 268.00 375.00 268.04
  Q 384.62 268.13 394.25 267.99
  C 406.90 267.79 416.83 268.92 416.87 284.51
  Q 416.91 305.34 416.79 326.16
  C 416.76 332.67 415.58 338.38 408.47 339.16
  Z
  M 395.99 287.84
  A 0.84 0.84 0.0 0 0 395.15 287.00
  L 384.83 287.00
  A 0.84 0.84 0.0 0 0 383.99 287.84
  L 383.99 321.48
  A 0.84 0.84 0.0 0 0 384.83 322.32
  L 395.15 322.32
  A 0.84 0.84 0.0 0 0 395.99 321.48
  L 395.99 287.84
  Z"
/>
<path fill="#ffffff" d="
  M 457.36 288.58
  Q 457.42 326.88 457.38 365.18
  Q 457.38 366.28 457.53 368.55
  Q 457.62 369.88 457.82 371.32
  A 0.60 0.59 -4.2 0 1 457.23 372.00
  L 436.74 372.00
  A 0.76 0.75 90.0 0 1 435.99 371.24
  L 436.00 288.63
  Q 436.00 288.01 435.38 288.01
  L 422.99 287.99
  A 0.57 0.57 0.0 0 1 422.44 287.27
  L 427.29 269.96
  A 1.56 1.56 0.0 0 1 428.60 268.83
  Q 433.14 268.25 436.92 268.23
  C 437.95 268.22 439.86 268.79 441.32 268.58
  Q 442.70 268.38 443.10 268.37
  Q 454.31 268.18 465.52 268.08
  Q 466.07 268.08 466.21 268.62
  L 470.88 286.77
  A 0.99 0.99 0.0 0 1 469.92 288.00
  L 457.94 288.00
  Q 457.36 288.00 457.36 288.58
  Z"
/>
<path fill="#ffffff" d="
  M 498.04 330.70
  C 497.70 333.71 498.72 336.44 498.75 339.00
  Q 498.77 341.02 498.75 343.02
  C 498.71 345.99 497.20 349.00 498.71 352.61
  Q 498.92 353.11 499.43 352.94
  C 500.56 352.57 501.34 352.26 502.55 352.25
  Q 510.22 352.21 517.76 352.27
  A 2.04 2.04 0.0 0 1 519.75 354.68
  L 516.74 370.92
  A 1.32 1.32 0.0 0 1 515.44 372.00
  L 477.50 372.00
  A 0.50 0.50 0.0 0 1 477.00 371.50
  L 477.00 268.56
  Q 477.00 268.12 477.44 268.12
  L 515.37 268.02
  A 2.27 2.25 -5.0 0 1 517.60 269.88
  L 520.70 287.22
  A 0.67 0.67 0.0 0 1 520.04 288.00
  L 498.52 288.00
  Q 498.03 288.00 498.03 288.49
  Q 498.03 295.92 498.06 303.24
  Q 498.07 303.63 498.55 304.30
  Q 498.88 304.74 498.67 305.25
  Q 497.56 307.99 498.20 310.92
  Q 498.51 312.33 499.97 312.34
  L 513.92 312.39
  A 1.53 1.53 0.0 0 1 515.44 313.92
  L 515.39 328.95
  A 1.46 1.46 0.0 0 1 513.75 330.40
  Q 508.48 329.71 503.27 330.49
  Q 502.73 330.57 502.26 330.29
  Q 500.84 329.46 499.59 330.53
  Q 499.24 330.84 498.84 330.61
  L 498.55 330.44
  Q 498.10 330.18 498.04 330.70
  Z"
/>
<path fill="#ffffff" d="
  M 549.29 290.18
  L 549.16 350.24
  Q 549.16 351.86 550.73 352.26
  Q 552.25 352.64 554.74 352.52
  Q 562.41 352.14 569.90 352.13
  A 1.11 1.11 0.0 0 1 570.99 353.45
  L 567.41 371.50
  Q 567.34 371.89 566.94 371.90
  Q 551.24 372.25 540.71 371.88
  C 529.01 371.46 528.10 363.46 528.06 353.30
  Q 527.83 300.46 528.03 280.26
  C 528.11 271.87 533.64 269.09 541.45 268.47
  Q 550.98 267.72 560.49 268.26
  C 562.50 268.38 564.88 267.77 567.23 269.01
  Q 567.66 269.24 567.75 269.71
  L 570.92 287.23
  A 0.65 0.65 0.0 0 1 570.28 288.00
  L 551.47 288.00
  A 2.18 2.18 0.0 0 0 549.29 290.18
  Z"
/>
</svg>
