<?xml version="1.0" encoding="UTF-8" standalone="no"?>
<svg xmlns="http://www.w3.org/2000/svg" version="1.2" baseProfile="tiny" viewBox="0.00 0.00 710.00 466.00">
<rect fill="#fed600" x="351.33" y="86.40" width="11.34" height="29.76" rx="5.45"/>
<rect fill="#fed600" x="-5.47" y="-15.00" transform="translate(411.12,123.50) rotate(44.9)" width="10.94" height="30.00" rx="5.31"/>
<rect fill="#fed600" x="-5.47" y="-14.83" transform="translate(302.86,123.74) rotate(-44.7)" width="10.94" height="29.66" rx="5.31"/>
<path fill="#fed600" d="
  M 427.88 229.19
  C 430.92 229.37 438.29 227.85 439.53 231.96
  Q 439.65 232.38 439.49 232.78
  C 438.32 235.75 431.26 234.77 428.65 234.74
  A 1.12 1.12 0.0 0 0 427.51 235.83
  C 427.46 237.72 427.85 240.47 427.04 241.96
  C 424.94 245.80 421.07 242.73 420.91 239.55
  Q 420.88 238.97 420.30 239.00
  Q 407.49 239.68 401.86 228.47
  Q 401.62 227.99 401.08 227.99
  Q 383.67 228.02 366.26 227.98
  Q 352.06 227.94 346.35 226.74
  C 326.08 222.47 310.00 205.50 306.88 184.97
  C 302.03 153.14 327.68 125.61 359.48 126.87
  C 385.93 127.91 406.86 149.14 408.05 175.40
  C 408.46 184.48 397.88 185.34 397.09 177.86
  Q 396.39 171.27 396.01 169.49
  C 388.28 132.86 339.46 126.06 321.78 158.82
  C 307.18 185.89 327.71 216.43 357.31 216.94
  Q 379.03 217.31 400.56 217.27
  A 1.38 1.37 -75.8 0 0 401.77 216.54
  Q 406.02 208.55 414.78 206.49
  C 416.47 206.09 418.49 206.37 420.41 206.14
  A 0.63 0.62 87.9 0 0 420.96 205.54
  C 421.14 200.93 426.75 200.78 427.14 205.00
  Q 427.38 207.59 427.09 209.88
  A 0.99 0.99 0.0 0 0 428.07 210.99
  L 437.23 211.00
  Q 437.74 211.00 438.15 211.31
  Q 440.50 213.12 438.58 215.53
  A 1.08 1.08 0.0 0 1 437.70 215.93
  L 428.91 215.71
  A 1.63 1.62 -89.3 0 0 427.25 217.34
  L 427.25 228.52
  A 0.67 0.67 0.0 0 0 427.88 229.19
  Z"
/>
<rect fill="#fed600" x="-15.20" y="-5.43" transform="translate(280.37,177.50) rotate(-0.2)" width="30.40" height="10.86" rx="5.25"/>
<rect fill="#fed600" x="-5.46" y="-14.93" transform="translate(302.78,231.55) rotate(44.9)" width="10.92" height="29.86" rx="5.21"/>
<path fill="#02346a" d="
  M 158.56 328.74
  C 150.03 328.24 134.35 332.06 134.29 318.07
  Q 134.21 301.37 134.27 284.67
  C 134.31 273.73 137.58 269.54 149.12 269.06
  C 156.85 268.74 164.30 269.69 171.50 268.95
  Q 172.69 268.83 176.02 269.43
  Q 176.47 269.51 176.55 269.96
  L 179.78 287.00
  Q 179.94 287.85 179.08 287.84
  C 174.34 287.75 157.71 286.55 154.29 288.66
  A 0.92 0.91 -16.0 0 0 153.85 289.44
  L 153.82 309.59
  A 2.35 2.34 1.8 0 0 156.03 311.94
  Q 163.30 312.36 170.96 312.26
  C 177.10 312.18 180.31 315.47 180.39 321.70
  Q 180.60 338.09 180.43 354.50
  C 180.34 363.68 178.25 371.69 167.20 371.73
  Q 153.50 371.78 140.14 371.74
  A 0.92 0.92 0.0 0 1 139.24 371.00
  L 135.90 354.16
  Q 135.67 353.00 136.86 353.00
  L 158.00 353.00
  A 2.25 2.25 0.0 0 0 160.25 350.75
  L 160.25 330.53
  A 1.80 1.79 1.7 0 0 158.56 328.74
  Z"
/>
<path fill="#02346a" d="
  M 242.8074 358.9334
  A 12.68 12.68 0.0 0 1 230.1495 371.6355
  L 202.1696 371.6843
  A 12.68 12.68 0.0 0 1 189.4675 359.0265
  L 189.3326 281.7466
  A 12.68 12.68 0.0 0 1 201.9905 269.0445
  L 229.9704 268.9957
  A 12.68 12.68 0.0 0 1 242.6725 281.6535
  L 242.8074 358.9334
  Z
  M 222.20 288.64
  A 1.99 1.99 0.0 0 0 220.21 286.65
  L 211.75 286.65
  A 1.99 1.99 0.0 0 0 209.76 288.64
  L 209.76 352.20
  A 1.99 1.99 0.0 0 0 211.75 354.19
  L 220.21 354.19
  A 1.99 1.99 0.0 0 0 222.20 352.20
  L 222.20 288.64
  Z"
/>
<path fill="#02346a" d="
  M 293.21 353.86
  L 289.99 371.15
  A 0.73 0.73 0.0 0 1 289.27 371.75
  L 252.48 371.75
  A 0.73 0.73 0.0 0 1 251.75 371.02
  L 251.75 269.73
  A 0.73 0.73 0.0 0 1 252.48 269.00
  L 272.02 269.00
  A 0.73 0.73 0.0 0 1 272.75 269.73
  L 272.75 352.27
  A 0.73 0.73 0.0 0 0 273.48 353.00
  L 292.49 353.00
  A 0.73 0.73 0.0 0 1 293.21 353.86
  Z"
/>
<path fill="#02346a" d="
  M 334.40 359.00
  L 320.97 359.00
  A 0.63 0.63 0.0 0 0 320.34 359.54
  L 318.69 371.21
  A 0.63 0.63 0.0 0 1 318.06 371.75
  L 298.96 371.75
  A 0.63 0.63 0.0 0 1 298.35 371.01
  L 316.81 269.52
  A 0.63 0.63 0.0 0 1 317.43 269.00
  L 338.10 269.00
  A 0.63 0.63 0.0 0 1 338.72 269.52
  L 357.17 371.01
  A 0.63 0.63 0.0 0 1 356.55 371.75
  L 337.56 371.75
  A 0.63 0.63 0.0 0 1 336.94 371.22
  L 335.02 359.53
  A 0.63 0.63 0.0 0 0 334.40 359.00
  Z
  M 327.66 308.25
  Q 326.26 308.77 326.79 310.80
  Q 326.99 311.56 326.62 314.32
  Q 324.76 328.24 322.83 341.97
  A 0.91 0.91 0.0 0 0 323.73 343.00
  L 331.24 343.00
  A 1.33 1.33 0.0 0 0 332.56 341.50
  L 328.42 308.71
  A 0.57 0.57 0.0 0 0 327.66 308.25
  Z"
/>
<path fill="#02346a" d="
  M 383.94 339.97
  L 383.69 371.31
  Q 383.69 371.75 383.25 371.75
  L 364.25 371.75
  Q 363.50 371.75 363.50 371.00
  L 363.50 269.51
  A 0.45 0.45 0.0 0 1 363.95 269.06
  Q 382.88 268.84 401.96 269.14
  C 410.48 269.28 416.34 272.62 416.41 281.94
  Q 416.60 305.34 416.52 328.75
  Q 416.49 335.70 410.48 338.57
  A 1.85 1.85 0.0 0 1 409.49 338.75
  Q 408.58 338.67 407.76 339.02
  Q 407.19 339.27 407.38 339.86
  L 417.68 371.22
  Q 417.85 371.75 417.30 371.75
  L 397.83 371.75
  A 1.19 1.19 0.0 0 1 396.69 370.91
  L 387.07 339.51
  A 1.60 1.60 0.0 0 0 383.94 339.97
  Z
  M 396.22 288.03
  A 1.36 1.36 0.0 0 0 394.86 286.67
  L 385.10 286.67
  A 1.36 1.36 0.0 0 0 383.74 288.03
  L 383.74 321.35
  A 1.36 1.36 0.0 0 0 385.10 322.71
  L 394.86 322.71
  A 1.36 1.36 0.0 0 0 396.22 321.35
  L 396.22 288.03
  Z"
/>
<path fill="#02346a" d="
  M 422.85 286.86
  L 427.81 269.49
  A 0.67 0.67 0.0 0 1 428.46 269.00
  L 465.41 269.00
  A 0.67 0.67 0.0 0 1 466.06 269.50
  L 470.67 286.91
  A 0.67 0.67 0.0 0 1 470.02 287.75
  L 457.67 287.75
  A 0.67 0.67 0.0 0 0 457.00 288.42
  L 457.00 371.08
  A 0.67 0.67 0.0 0 1 456.33 371.75
  L 437.07 371.75
  A 0.67 0.67 0.0 0 1 436.40 371.08
  L 436.26 288.49
  A 0.67 0.67 0.0 0 0 435.60 287.82
  L 423.49 287.72
  A 0.67 0.67 0.0 0 1 422.85 286.86
  Z"
/>
<path fill="#02346a" d="
  M 497.86 330.58
  L 497.90 352.36
  A 0.64 0.64 0.0 0 0 498.54 353.00
  L 518.91 353.00
  A 0.64 0.64 0.0 0 1 519.54 353.76
  L 516.30 371.23
  A 0.64 0.64 0.0 0 1 515.67 371.75
  L 477.89 371.75
  A 0.64 0.64 0.0 0 1 477.25 371.11
  L 477.25 269.80
  A 0.64 0.64 0.0 0 1 477.89 269.16
  L 516.55 269.19
  A 0.64 0.64 0.0 0 1 517.18 269.71
  L 520.40 286.99
  A 0.64 0.64 0.0 0 1 519.77 287.75
  L 498.58 287.75
  A 0.64 0.64 0.0 0 0 497.94 288.39
  L 498.03 312.11
  A 0.64 0.64 0.0 0 0 498.67 312.75
  L 514.36 312.75
  A 0.64 0.64 0.0 0 1 515.00 313.39
  L 515.00 329.04
  A 0.64 0.64 0.0 0 1 514.37 329.68
  L 498.49 329.94
  A 0.64 0.64 0.0 0 0 497.86 330.58
  Z"
/>
<path fill="#02346a" d="
  M 542.26 371.70
  C 534.39 371.64 528.42 367.23 528.38 358.55
  Q 528.19 319.79 528.34 281.00
  C 528.38 272.98 533.09 269.32 540.66 269.15
  Q 553.73 268.86 566.55 269.28
  A 0.96 0.95 85.8 0 1 567.45 270.06
  L 570.54 287.18
  Q 570.64 287.75 570.06 287.75
  L 551.25 287.75
  A 2.25 2.25 0.0 0 0 549.00 290.00
  L 549.00 350.75
  A 2.25 2.25 0.0 0 0 551.25 353.00
  L 569.72 353.00
  Q 570.71 353.00 570.52 353.97
  L 567.12 371.25
  Q 567.02 371.73 566.52 371.74
  Q 554.35 371.79 542.26 371.70
  Z"
/>
</svg>
