<?xml version="1.0" encoding="UTF-8" standalone="no"?>
<svg xmlns="http://www.w3.org/2000/svg" version="1.2" baseProfile="tiny" viewBox="0.00 0.00 128.00 128.00">
<path fill="#000000" d="
  M 33.03 11.95
  A 2.03 2.02 -15.1 0 1 34.83 12.98
  C 40.20 22.41 24.44 19.95 20.57 20.03
  Q 20.03 20.04 20.02 20.59
  C 19.98 23.76 20.80 32.14 19.09 34.53
  C 16.70 37.87 12.10 35.47 12.03 31.38
  C 11.96 27.20 10.98 15.64 13.49 12.55
  A 0.86 0.86 0.0 0 1 14.14 12.23
  L 33.03 11.95
  Z"
/>
<path fill="#000000" d="
  M 114.04 12.56
  C 115.54 13.75 115.97 14.71 115.98 16.78
  C 116.00 20.34 116.89 31.61 115.32 34.26
  C 113.91 36.64 109.69 36.46 108.49 33.88
  C 107.26 31.26 108.02 23.76 107.98 20.58
  Q 107.97 20.02 107.41 20.02
  C 104.32 19.99 95.98 20.75 93.64 19.23
  C 90.15 16.96 92.44 12.07 96.61 12.03
  Q 104.79 11.95 112.53 12.02
  A 2.47 2.45 -25.1 0 1 114.04 12.56
  Z"
/>
<path fill="#000000" d="
  M 52.0233 44.4272
  A 7.50 7.50 0.0 0 1 44.5627 51.9663
  L 35.5828 52.0133
  A 7.50 7.50 0.0 0 1 28.0437 44.5527
  L 27.9967 35.5728
  A 7.50 7.50 0.0 0 1 35.4573 28.0337
  L 44.4372 27.9867
  A 7.50 7.50 0.0 0 1 51.9763 35.4473
  L 52.0233 44.4272
  Z
  M 43.9881 36.5861
  A 0.60 0.60 0.0 0 0 43.3860 35.9882
  L 36.5861 36.0119
  A 0.60 0.60 0.0 0 0 35.9882 36.6140
  L 36.0119 43.4139
  A 0.60 0.60 0.0 0 0 36.6140 44.0118
  L 43.4139 43.9881
  A 0.60 0.60 0.0 0 0 44.0118 43.3860
  L 43.9881 36.5861
  Z"
/>
<circle fill="#000000" cx="64.03" cy="32.02" r="3.98"/>
<path fill="#000000" d="
  M 99.9662 44.5827
  A 7.46 7.46 0.0 0 1 92.4672 52.0036
  L 83.4073 51.9561
  A 7.46 7.46 0.0 0 1 75.9865 44.4572
  L 76.0338 35.4173
  A 7.46 7.46 0.0 0 1 83.5328 27.9964
  L 92.5927 28.0439
  A 7.46 7.46 0.0 0 1 100.0135 35.5428
  L 99.9662 44.5827
  Z
  M 91.9881 36.5861
  A 0.60 0.60 0.0 0 0 91.3860 35.9882
  L 84.5861 36.0119
  A 0.60 0.60 0.0 0 0 83.9882 36.6140
  L 84.0119 43.4139
  A 0.60 0.60 0.0 0 0 84.6140 44.0118
  L 91.4139 43.9881
  A 0.60 0.60 0.0 0 0 92.0118 43.3860
  L 91.9881 36.5861
  Z"
/>
<circle fill="#000000" cx="64.03" cy="48.02" r="3.99"/>
<rect fill="#000000" x="28.06" y="60.03" width="23.88" height="7.94" rx="3.83"/>
<circle fill="#000000" cx="64.02" cy="64.02" r="3.99"/>
<rect fill="#000000" x="76.03" y="60.05" width="7.94" height="23.90" rx="3.83"/>
<circle fill="#000000" cx="96.03" cy="64.02" r="3.99"/>
<path fill="#000000" d="
  M 51.9956 92.4382
  A 7.51 7.51 0.0 0 1 44.5118 99.9743
  L 35.5719 100.0055
  A 7.51 7.51 0.0 0 1 28.0357 92.5218
  L 28.0044 83.5618
  A 7.51 7.51 0.0 0 1 35.4882 76.0257
  L 44.4281 75.9945
  A 7.51 7.51 0.0 0 1 51.9643 83.4782
  L 51.9956 92.4382
  Z
  M 43.9881 84.5861
  A 0.60 0.60 0.0 0 0 43.3860 83.9882
  L 36.5861 84.0119
  A 0.60 0.60 0.0 0 0 35.9882 84.6140
  L 36.0119 91.4139
  A 0.60 0.60 0.0 0 0 36.6140 92.0118
  L 43.4139 91.9881
  A 0.60 0.60 0.0 0 0 44.0118 91.3860
  L 43.9881 84.5861
  Z"
/>
<circle fill="#000000" cx="64.03" cy="80.02" r="3.99"/>
<circle fill="#000000" cx="96.03" cy="80.02" r="3.98"/>
<path fill="#000000" d="
  M 12.04 95.32
  C 12.06 93.03 15.30 91.58 17.27 92.25
  C 21.45 93.69 19.97 103.76 20.03 107.43
  Q 20.04 107.98 20.59 107.98
  C 23.73 108.01 32.14 107.22 34.49 108.88
  C 37.87 111.26 35.48 115.93 31.32 115.97
  Q 23.65 116.04 15.97 115.99
  A 3.97 3.97 0.0 0 1 12.03 112.06
  Q 11.94 104.00 12.04 95.32
  Z"
/>
<rect fill="#000000" x="60.06" y="92.03" width="23.88" height="7.94" rx="3.83"/>
<circle fill="#000000" cx="96.02" cy="96.02" r="3.99"/>
<path fill="#000000" d="
  M 109.00 93.40
  C 111.43 90.17 115.96 92.60 115.98 96.65
  Q 116.02 104.43 115.99 112.10
  A 3.90 3.89 -0.3 0 1 112.14 115.98
  C 108.72 116.02 96.08 116.92 93.49 115.11
  C 91.29 113.59 91.72 109.51 94.31 108.39
  C 96.92 107.26 104.28 108.03 107.43 107.97
  Q 107.97 107.96 107.98 107.41
  C 108.02 104.19 107.18 95.82 109.00 93.40
  Z"
/>
</svg>
