<?xml version="1.0" standalone="no"?>
<!DOCTYPE svg PUBLIC "-//W3C//DTD SVG 20010904//EN"
 "http://www.w3.org/TR/2001/REC-SVG-20010904/DTD/svg10.dtd">
<svg version="1.0" xmlns="http://www.w3.org/2000/svg"
 width="512.000000pt" height="512.000000pt" viewBox="0 0 512.000000 512.000000"
 preserveAspectRatio="xMidYMid meet">
<metadata>
Created by potrace 1.14, written by Peter Selinger 2001-2017
</metadata>
<g transform="translate(0.000000,512.000000) scale(0.100000,-0.100000)"
fill="#000000" stroke="none">
<path d="M1115 5056 c-44 -7 -90 -17 -102 -24 -12 -7 -32 -12 -45 -12 -23 0
-64 -14 -130 -43 -21 -10 -44 -17 -51 -17 -8 0 -20 -7 -27 -15 -6 -8 -21 -17
-33 -21 -11 -3 -25 -11 -31 -16 -6 -5 -47 -32 -91 -59 -96 -62 -245 -211 -311
-312 -26 -40 -54 -83 -64 -97 -24 -35 -70 -134 -70 -150 0 -7 -7 -21 -16 -31
-8 -9 -19 -41 -23 -71 -4 -29 -16 -69 -27 -88 -19 -34 -19 -72 -19 -1530 l0
-1495 22 -49 c13 -27 23 -63 23 -80 0 -17 9 -46 20 -64 11 -18 20 -38 20 -45
0 -19 61 -137 71 -137 5 0 9 -8 9 -18 0 -11 9 -27 20 -37 11 -10 20 -24 20
-32 0 -7 5 -13 10 -13 6 0 10 -5 10 -11 0 -17 64 -95 112 -135 25 -22 52 -49
60 -62 15 -24 133 -112 188 -139 19 -10 38 -23 42 -29 4 -7 19 -15 33 -18 14
-4 25 -10 25 -15 0 -5 23 -15 50 -22 28 -7 50 -16 50 -20 0 -10 67 -29 103
-29 15 0 42 -7 60 -17 18 -9 66 -20 107 -24 104 -11 2769 -11 2853 0 37 5 75
15 83 22 9 7 43 16 75 20 33 4 68 13 77 21 9 8 36 20 60 28 23 7 47 19 53 27
6 7 20 13 31 13 10 0 21 7 24 15 3 8 15 17 26 21 19 6 160 100 183 123 6 5 30
32 55 60 25 28 50 51 55 51 6 0 21 17 35 38 14 20 28 39 31 42 3 3 13 19 22
36 9 17 23 36 31 43 9 8 16 21 16 31 0 9 9 25 20 35 11 10 20 24 20 32 0 8 7
21 15 29 8 8 19 32 25 54 6 22 16 45 24 52 7 7 16 38 20 68 4 30 14 68 21 85
31 65 35 254 35 1551 0 1250 -5 1498 -30 1529 -5 6 -14 42 -21 80 -7 39 -16
72 -19 75 -13 9 -30 49 -30 68 0 10 -9 27 -20 37 -11 10 -20 26 -20 35 0 9 -9
25 -20 35 -11 10 -20 23 -20 29 0 10 -30 57 -78 126 -21 30 -188 197 -228 227
-16 13 -34 23 -40 23 -6 0 -18 7 -25 17 -8 9 -29 22 -46 30 -18 7 -33 18 -33
23 0 6 -6 10 -14 10 -7 0 -24 8 -37 19 -13 10 -40 22 -59 26 -19 4 -41 12 -49
18 -21 17 -83 37 -117 37 -16 0 -35 5 -42 12 -7 7 -38 16 -69 21 -91 15 -2788
17 -2888 3z m1560 -1262 l25 -23 0 -189 c0 -183 -1 -189 -22 -209 -30 -27 -63
-34 -98 -22 -46 17 -55 54 -55 236 0 148 2 164 21 190 41 55 82 61 129 17z
m-865 -486 c125 -129 154 -175 138 -219 -15 -43 -50 -63 -96 -56 -36 6 -78 43
-152 132 -14 17 -40 41 -59 54 -34 24 -70 89 -71 127 0 39 72 87 115 76 11 -3
67 -54 125 -114z m1803 101 c31 -17 37 -28 37 -73 0 -37 -8 -47 -117 -158 -71
-71 -135 -127 -162 -140 l-44 -21 -24 29 c-51 64 -42 103 46 198 160 172 202
197 264 165z m-883 -243 c118 -18 131 -22 241 -76 147 -72 279 -203 351 -350
68 -138 76 -168 85 -302 6 -94 5 -97 -20 -122 -19 -19 -36 -26 -65 -26 -61 0
-78 27 -97 145 -19 126 -30 167 -63 230 -37 70 -38 70 -124 155 -84 83 -200
149 -296 169 -68 14 -186 14 -254 0 -137 -29 -311 -145 -385 -256 -81 -122
-103 -197 -103 -349 0 -98 4 -133 24 -195 46 -145 110 -234 236 -327 144 -106
230 -121 702 -122 337 0 337 0 359 23 11 12 31 38 44 57 12 19 29 40 36 47 23
18 136 53 174 53 24 0 35 5 35 14 0 20 39 46 67 46 17 0 24 -8 31 -37 6 -21 9
-51 8 -68 l-1 -30 85 -3 c90 -3 100 -8 100 -54 l0 -28 -89 0 c-77 0 -90 -2
-94 -17 -4 -16 -3 -145 1 -180 1 -9 19 -13 50 -13 84 0 123 -11 134 -36 19
-42 -3 -54 -98 -54 l-84 0 0 -45 c0 -95 -51 -127 -95 -59 -18 28 -26 32 -83
37 -90 9 -163 55 -205 130 -11 21 -30 40 -42 42 -11 3 -202 6 -425 8 -382 4
-409 5 -480 26 -84 25 -167 68 -256 134 -59 44 -134 115 -134 128 0 4 -13 21
-29 38 -27 29 -36 45 -79 141 -60 136 -90 365 -61 474 25 96 34 125 65 198 57
138 182 276 320 353 114 64 199 93 299 104 113 12 110 12 215 -3z m-1110 -724
c13 -11 23 -33 27 -59 5 -37 2 -46 -25 -73 l-30 -30 -172 0 c-173 0 -201 5
-227 39 -20 26 -15 83 10 113 l22 28 186 0 c164 0 189 -2 209 -18z m303 -750
c9 -10 22 -33 28 -50 13 -37 6 -52 -59 -123 -115 -130 -197 -199 -236 -199
-36 0 -46 6 -69 40 -38 55 -20 87 137 243 99 97 112 107 146 107 23 0 43 -7
53 -18z"/>
</g>
</svg>
