<?xml version="1.0" encoding="UTF-8" standalone="no"?>
<svg xmlns="http://www.w3.org/2000/svg" version="1.2" baseProfile="tiny" viewBox="0.00 0.00 647.00 340.00">
<rect fill="#ffffff" x="211.24" y="94.28" width="2.48" height="135.48" rx="0.36"/>
<rect fill="#fee88c" x="-2.61" y="-7.66" transform="translate(147.14,128.95) rotate(0.1)" width="5.22" height="15.32" rx="2.51"/>
<path fill="#ffffff" d="
  M 246.36 184.25
  A 1.37 1.37 0.0 0 0 247.73 182.88
  L 247.74 169.75
  A 1.96 1.96 0.0 0 0 245.71 167.79
  Q 241.59 167.94 237.73 168.07
  Q 231.01 168.31 230.79 161.48
  Q 230.43 149.89 230.41 138.26
  Q 230.40 128.45 240.25 128.58
  Q 248.88 128.69 257.52 128.75
  Q 258.04 128.75 258.13 129.27
  L 260.03 140.30
  A 0.61 0.60 85.1 0 1 259.44 141.01
  L 245.11 140.96
  A 1.93 1.93 0.0 0 0 243.17 142.89
  L 243.16 155.28
  A 1.97 1.96 89.6 0 0 245.15 157.25
  C 248.49 157.22 255.72 156.49 258.29 158.43
  Q 260.49 160.10 260.55 163.74
  Q 260.89 182.36 260.50 188.75
  C 260.11 195.16 255.57 196.51 249.73 196.58
  Q 242.61 196.67 235.04 196.70
  Q 233.84 196.70 233.63 195.52
  L 231.71 184.81
  Q 231.61 184.25 232.18 184.25
  L 246.36 184.25
  Z"
/>
<path fill="#ffffff" d="
  M 334.73 184.79
  L 332.60 196.22
  A 0.52 0.52 0.0 0 1 332.09 196.64
  L 308.18 196.65
  A 0.52 0.52 0.0 0 1 307.66 196.13
  L 307.71 129.31
  A 0.52 0.52 0.0 0 1 308.23 128.79
  L 320.55 128.68
  A 0.52 0.52 0.0 0 1 321.07 129.20
  L 321.01 183.76
  A 0.52 0.52 0.0 0 0 321.54 184.29
  L 334.22 184.18
  A 0.52 0.52 0.0 0 1 334.73 184.79
  Z"
/>
<path fill="#ffffff" d="
  M 420.12 140.17
  L 423.33 129.24
  A 0.66 0.66 0.0 0 1 423.96 128.77
  L 447.63 128.73
  A 0.66 0.66 0.0 0 1 448.27 129.23
  L 451.11 140.20
  A 0.66 0.66 0.0 0 1 450.46 141.02
  L 443.02 140.89
  A 0.66 0.66 0.0 0 0 442.35 141.55
  L 442.39 195.97
  A 0.66 0.66 0.0 0 1 441.73 196.63
  L 429.70 196.67
  A 0.66 0.66 0.0 0 1 429.04 196.01
  L 429.05 141.57
  A 0.66 0.66 0.0 0 0 428.38 140.91
  L 420.76 141.02
  A 0.66 0.66 0.0 0 1 420.12 140.17
  Z"
/>
<path fill="#ffffff" d="
  M 301.52 188.41
  A 8.18 8.18 0.0 0 1 293.34 196.59
  L 274.94 196.59
  A 8.18 8.18 0.0 0 1 266.76 188.41
  L 266.76 136.91
  A 8.18 8.18 0.0 0 1 274.94 128.73
  L 293.34 128.73
  A 8.18 8.18 0.0 0 1 301.52 136.91
  L 301.52 188.41
  Z
  M 288.15 141.50
  A 1.27 1.27 0.0 0 0 286.88 140.23
  L 281.10 140.23
  A 1.27 1.27 0.0 0 0 279.83 141.50
  L 279.83 183.82
  A 1.27 1.27 0.0 0 0 281.10 185.09
  L 286.88 185.09
  A 1.27 1.27 0.0 0 0 288.15 183.82
  L 288.15 141.50
  Z"
/>
<path fill="#ffffff" d="
  M 361.90 187.89
  L 353.11 187.96
  A 0.58 0.58 0.0 0 0 352.54 188.46
  L 351.49 196.13
  A 0.58 0.58 0.0 0 1 350.92 196.63
  L 338.89 196.73
  A 0.58 0.58 0.0 0 1 338.31 196.05
  L 350.42 129.25
  A 0.58 0.58 0.0 0 1 350.99 128.77
  L 363.99 128.73
  A 0.58 0.58 0.0 0 1 364.57 129.21
  L 376.69 195.97
  A 0.58 0.58 0.0 0 1 376.11 196.66
  L 364.13 196.61
  A 0.58 0.58 0.0 0 1 363.56 196.11
  L 362.48 188.39
  A 0.58 0.58 0.0 0 0 361.90 187.89
  Z
  M 360.75 176.75
  L 358.10 155.01
  A 0.58 0.58 0.0 0 0 356.94 155.01
  Q 355.64 165.38 354.28 175.79
  Q 354.14 176.90 354.45 177.38
  Q 354.93 178.14 356.13 177.83
  Q 356.59 177.71 357.07 177.78
  Q 358.73 178.04 360.28 177.53
  Q 360.83 177.35 360.75 176.75
  Z"
/>
<path fill="#ffffff" d="
  M 410.41 174.88
  Q 409.45 175.04 409.75 175.96
  L 416.27 195.92
  Q 416.46 196.52 415.82 196.53
  L 403.66 196.68
  Q 403.02 196.69 402.83 196.07
  L 396.64 175.51
  A 1.29 1.29 0.0 0 0 394.81 174.74
  Q 394.07 175.12 394.09 176.00
  Q 394.27 186.08 394.16 196.06
  A 0.55 0.55 0.0 0 1 393.62 196.61
  L 381.63 196.70
  Q 381.05 196.71 381.05 196.13
  L 381.20 129.28
  Q 381.21 128.81 381.67 128.81
  Q 398.57 128.64 406.99 128.77
  C 414.91 128.90 415.63 134.14 415.62 140.99
  Q 415.60 152.87 415.53 164.77
  C 415.50 169.72 415.79 174.02 410.41 174.88
  Z
  M 402.7385 141.6675
  A 1.42 1.42 0.0 0 0 401.3210 140.2450
  L 395.5610 140.2350
  A 1.42 1.42 0.0 0 0 394.1385 141.6525
  L 394.1015 162.8325
  A 1.42 1.42 0.0 0 0 395.5190 164.2550
  L 401.2790 164.2650
  A 1.42 1.42 0.0 0 0 402.7015 162.8475
  L 402.7385 141.6675
  Z"
/>
<path fill="#ffffff" d="
  M 469.04 141.54
  L 469.02 157.25
  A 0.63 0.63 0.0 0 0 469.66 157.88
  L 479.87 157.72
  A 0.63 0.63 0.0 0 1 480.51 158.35
  L 480.48 168.39
  A 0.63 0.63 0.0 0 1 479.85 169.01
  L 469.66 168.93
  A 0.63 0.63 0.0 0 0 469.02 169.56
  L 469.04 183.62
  A 0.63 0.63 0.0 0 0 469.67 184.25
  L 482.63 184.23
  A 0.63 0.63 0.0 0 1 483.25 184.97
  L 481.24 196.08
  A 0.63 0.63 0.0 0 1 480.63 196.60
  L 456.39 196.69
  A 0.63 0.63 0.0 0 1 455.76 196.06
  L 455.76 129.38
  A 0.63 0.63 0.0 0 1 456.39 128.75
  L 481.16 128.74
  A 0.63 0.63 0.0 0 1 481.78 129.25
  L 483.89 140.28
  A 0.63 0.63 0.0 0 1 483.26 141.03
  L 469.68 140.91
  A 0.63 0.63 0.0 0 0 469.04 141.54
  Z"
/>
<path fill="#ffffff" d="
  M 503.67 140.94
  A 0.89 0.89 0.0 0 0 502.77 141.83
  L 502.76 183.26
  A 1.00 1.00 0.0 0 0 503.76 184.26
  L 516.46 184.23
  A 0.40 0.40 0.0 0 1 516.85 184.71
  L 514.64 196.02
  A 0.64 0.63 -85.3 0 1 514.05 196.53
  Q 505.27 196.89 498.49 196.52
  C 488.45 195.98 489.28 189.26 489.25 180.72
  Q 489.19 159.66 489.27 138.62
  C 489.29 133.04 491.00 129.02 496.98 128.80
  Q 502.04 128.61 514.15 128.79
  Q 514.62 128.80 514.71 129.26
  L 516.74 139.91
  A 0.93 0.93 0.0 0 1 515.83 141.01
  L 503.67 140.94
  Z"
/>
<rect fill="#fee88c" x="-2.58" y="-7.40" transform="translate(119.36,140.52) rotate(-44.3)" width="5.16" height="14.80" rx="2.14"/>
<rect fill="#fee88c" x="-2.64" y="-7.52" transform="translate(174.95,140.40) rotate(44.5)" width="5.28" height="15.04" rx="2.55"/>
<path fill="#fee88c" d="
  M 183.59 185.72
  L 188.08 185.81
  A 1.01 1.01 0.0 0 1 188.98 187.24
  Q 188.56 188.17 187.01 187.93
  Q 185.20 187.65 183.44 188.12
  A 0.62 0.61 83.1 0 0 182.99 188.70
  L 182.91 194.61
  A 0.60 0.60 0.0 0 0 183.50 195.21
  L 188.11 195.25
  Q 188.86 195.25 189.09 195.97
  Q 189.38 196.93 188.84 197.40
  Q 188.48 197.71 187.57 197.67
  Q 185.64 197.57 183.67 197.72
  A 0.62 0.61 89.0 0 0 183.10 198.32
  L 183.00 200.85
  A 1.30 1.30 0.0 0 1 180.92 201.85
  Q 180.31 201.39 180.12 200.55
  Q 179.98 199.94 179.36 199.94
  Q 175.15 199.94 172.20 197.19
  C 171.50 196.54 171.06 195.37 170.31 194.54
  Q 169.96 194.16 169.45 194.17
  Q 158.71 194.29 147.99 194.16
  C 129.29 193.93 115.90 176.17 123.10 158.37
  C 128.63 144.69 145.50 138.36 158.30 144.80
  C 167.36 149.36 172.65 157.40 173.22 167.50
  C 173.46 171.61 168.17 172.20 167.94 168.09
  C 166.94 150.72 148.20 141.11 134.21 151.95
  C 121.10 162.11 125.55 183.53 141.36 188.12
  Q 144.36 188.99 151.20 189.04
  Q 160.32 189.11 169.44 189.13
  Q 169.94 189.14 170.17 188.70
  Q 173.07 183.40 179.32 183.18
  Q 179.79 183.16 180.02 182.74
  L 180.64 181.55
  A 1.20 1.19 58.2 0 1 182.89 182.08
  L 182.96 185.10
  A 0.64 0.64 0.0 0 0 183.59 185.72
  Z"
/>
<rect fill="#fee88c" x="-7.53" y="-2.74" transform="translate(107.87,168.20) rotate(-0.5)" width="15.06" height="5.48" rx="2.63"/>
<rect fill="#fee88c" x="-2.64" y="-7.50" transform="translate(119.32,196.14) rotate(44.3)" width="5.28" height="15.00" rx="2.49"/>
</svg>
