<?xml version="1.0" encoding="UTF-8" standalone="no"?>
<!DOCTYPE svg PUBLIC "-//W3C//DTD SVG 1.1//EN" "http://www.w3.org/Graphics/SVG/1.1/DTD/svg11.dtd">
<svg xmlns="http://www.w3.org/2000/svg" version="1.1" viewBox="0.00 0.00 679.00 423.00">
<rect fill="#02356a" x="235.25" y="148.16" width="2.50" height="135.56" rx="0.32"/>
<rect fill="#fad502" x="-2.79" y="-7.83" transform="translate(171.12,182.99) rotate(-0.2)" width="5.58" height="15.66" rx="2.69"/>
<path fill="#02356a" d="
  M 254.53 191.07
  C 254.64 187.65 256.70 183.29 260.65 183.05
  Q 270.93 182.42 281.46 182.87
  A 0.79 0.78 85.3 0 1 282.20 183.51
  L 284.15 194.34
  Q 284.26 195.00 283.60 195.00
  L 269.13 195.00
  A 1.88 1.88 0.0 0 0 267.25 196.88
  L 267.25 209.01
  A 2.14 2.14 0.0 0 0 269.31 211.15
  C 274.87 211.34 284.44 209.08 284.60 217.50
  Q 284.93 234.77 284.62 242.05
  Q 284.31 249.40 277.03 250.51
  Q 271.32 251.38 258.36 250.31
  Q 257.80 250.26 257.70 249.72
  L 255.63 238.89
  Q 255.51 238.25 256.16 238.25
  L 269.84 238.25
  A 1.91 1.91 0.0 0 0 271.75 236.34
  L 271.75 223.80
  A 1.82 1.82 0.0 0 0 269.98 221.98
  L 258.20 221.66
  A 0.94 0.92 -25.2 0 1 257.68 221.48
  C 252.10 217.27 254.30 197.73 254.53 191.07
  Z"
/>
<path fill="#02356a" d="
  M 317.52 182.74
  A 8.25 8.25 0.0 0 1 325.77 190.99
  L 325.77 241.09
  A 9.86 9.65 -0.0 0 1 315.91 250.74
  L 300.57 250.74
  A 9.86 9.65 -0.0 0 1 290.71 241.09
  L 290.71 190.99
  A 8.25 8.25 0.0 0 1 298.96 182.74
  L 317.52 182.74
  Z
  M 312.3223 195.9247
  A 1.63 1.63 0.0 0 0 310.6980 194.2890
  L 305.6181 194.2713
  A 1.63 1.63 0.0 0 0 303.9824 195.8956
  L 303.8377 237.3553
  A 1.63 1.63 0.0 0 0 305.4620 238.9910
  L 310.5419 239.0087
  A 1.63 1.63 0.0 0 0 312.1776 237.3844
  L 312.3223 195.9247
  Z"
/>
<path fill="#02356a" d="
  M 332.45 182.75
  L 344.46 182.75
  A 0.79 0.79 0.0 0 1 345.25 183.54
  L 345.25 237.46
  A 0.79 0.79 0.0 0 0 346.04 238.25
  L 357.99 238.25
  A 0.79 0.79 0.0 0 1 358.76 239.19
  L 356.72 250.07
  A 0.79 0.79 0.0 0 1 355.94 250.71
  L 332.39 250.42
  A 0.79 0.79 0.0 0 1 331.61 249.63
  L 331.66 183.54
  A 0.79 0.79 0.0 0 1 332.45 182.75
  Z"
/>
<path fill="#02356a" d="
  M 376.55 242.82
  L 375.57 249.66
  A 0.95 0.95 0.0 0 1 374.66 250.47
  L 363.28 250.82
  A 0.95 0.95 0.0 0 1 362.32 249.71
  L 374.31 183.53
  A 0.95 0.95 0.0 0 1 375.24 182.75
  L 387.76 182.75
  A 0.95 0.95 0.0 0 1 388.69 183.53
  L 400.76 249.70
  A 0.95 0.95 0.0 0 1 399.79 250.82
  L 388.49 250.45
  A 0.95 0.95 0.0 0 1 387.58 249.67
  L 386.35 242.78
  A 0.95 0.95 0.0 0 0 385.41 242.00
  L 377.49 242.01
  A 0.95 0.95 0.0 0 0 376.55 242.82
  Z
  M 381.25 208.99
  A 0.26 0.26 0.0 0 0 380.98 209.22
  L 378.31 231.44
  A 0.26 0.26 0.0 0 0 378.57 231.73
  L 384.51 231.66
  A 0.26 0.26 0.0 0 0 384.76 231.37
  L 382.01 209.23
  A 0.26 0.26 0.0 0 0 381.76 209.01
  L 381.25 208.99
  Z"
/>
<path fill="#02356a" d="
  M 420.62 229.44
  A 1.22 1.22 0.0 0 0 418.24 229.79
  L 418.22 249.64
  A 0.94 0.94 0.0 0 1 417.30 250.58
  L 406.13 250.82
  A 0.94 0.94 0.0 0 1 405.17 249.88
  L 405.29 183.68
  Q 405.29 182.79 406.18 182.78
  Q 418.27 182.65 430.83 182.85
  C 438.27 182.97 439.65 187.09 439.71 193.87
  Q 439.92 214.88 439.69 222.94
  Q 439.58 226.51 436.14 228.57
  Q 435.72 228.83 435.24 228.74
  Q 434.26 228.56 433.94 229.27
  Q 433.71 229.77 434.01 230.65
  Q 437.28 240.16 440.29 249.83
  A 0.56 0.56 0.0 0 1 439.76 250.56
  L 428.31 250.67
  Q 426.99 250.68 426.61 249.41
  L 420.62 229.44
  Z
  M 426.5957 195.5019
  A 1.21 1.21 0.0 0 0 425.3921 194.2856
  L 419.5121 194.2548
  A 1.21 1.21 0.0 0 0 418.2958 195.4584
  L 418.1843 216.7581
  A 1.21 1.21 0.0 0 0 419.3879 217.9744
  L 425.2679 218.0052
  A 1.21 1.21 0.0 0 0 426.4842 216.8016
  L 426.5957 195.5019
  Z"
/>
<path fill="#02356a" d="
  M 448.07 182.75
  L 471.55 182.75
  A 0.89 0.89 0.0 0 1 472.42 183.41
  L 475.18 193.88
  A 0.89 0.89 0.0 0 1 474.32 195.00
  L 467.41 195.00
  A 0.89 0.89 0.0 0 0 466.52 195.89
  L 466.27 249.73
  A 0.89 0.89 0.0 0 1 465.38 250.62
  L 453.89 250.61
  A 0.89 0.89 0.0 0 1 453.00 249.72
  L 453.00 195.89
  A 0.89 0.89 0.0 0 0 452.11 195.00
  L 445.04 195.00
  A 0.89 0.89 0.0 0 1 444.19 193.86
  L 447.21 183.39
  A 0.89 0.89 0.0 0 1 448.07 182.75
  Z"
/>
<path fill="#02356a" d="
  M 493.25 195.81
  L 493.25 210.96
  A 0.78 0.78 0.0 0 0 494.03 211.74
  L 504.14 211.75
  A 0.63 0.63 0.0 0 1 504.77 212.40
  L 504.58 222.34
  Q 504.56 223.00 503.91 223.00
  L 494.25 223.00
  A 1.00 1.00 0.0 0 0 493.25 224.00
  L 493.25 237.75
  A 0.50 0.50 0.0 0 0 493.75 238.25
  L 506.75 238.25
  Q 507.43 238.25 507.31 238.92
  L 505.37 249.61
  A 0.95 0.93 -2.1 0 1 504.68 250.34
  C 501.91 251.06 498.68 250.45 496.79 250.49
  Q 488.58 250.68 480.37 250.41
  A 0.64 0.64 0.0 0 1 479.75 249.77
  L 479.75 183.25
  A 0.50 0.50 0.0 0 1 480.25 182.75
  L 505.11 182.75
  A 0.71 0.71 0.0 0 1 505.81 183.33
  L 507.90 193.99
  A 0.85 0.85 0.0 0 1 507.07 195.00
  L 494.06 195.00
  A 0.82 0.81 -0.4 0 0 493.25 195.81
  Z"
/>
<path fill="#02356a" d="
  M 513.27 190.49
  C 513.28 186.37 516.49 182.85 520.55 182.80
  Q 529.30 182.70 538.20 182.77
  A 0.60 0.60 0.0 0 1 538.79 183.26
  L 540.82 193.99
  A 0.85 0.85 0.0 0 1 539.99 195.00
  L 528.03 195.00
  A 1.28 1.28 0.0 0 0 526.75 196.28
  L 526.75 237.00
  A 1.25 1.25 0.0 0 0 528.00 238.25
  L 539.74 238.25
  Q 541.01 238.25 540.76 239.50
  L 538.68 249.99
  Q 538.60 250.41 538.17 250.45
  C 530.75 251.24 513.30 253.17 513.27 241.75
  Q 513.20 216.12 513.27 190.49
  Z"
/>
<rect fill="#fad502" x="-2.71" y="-7.47" transform="translate(143.37,194.58) rotate(-44.2)" width="5.42" height="14.94" rx="2.15"/>
<rect fill="#fad502" x="-2.77" y="-7.64" transform="translate(198.91,194.44) rotate(44.1)" width="5.54" height="15.28" rx="2.54"/>
<path fill="#fad502" d="
  M 203.48 253.95
  Q 197.07 254.26 194.35 248.68
  A 0.91 0.89 -13.3 0 0 193.52 248.18
  Q 183.68 248.41 174.00 248.49
  C 158.93 248.61 147.53 240.25 145.51 225.09
  C 143.03 206.51 161.53 191.93 178.50 197.32
  C 189.51 200.83 196.51 209.54 197.16 221.14
  C 197.29 223.35 196.55 225.29 193.99 224.98
  A 2.30 2.30 0.0 0 1 192.04 223.23
  C 191.42 220.59 191.21 217.62 190.38 215.30
  C 182.63 193.67 150.46 199.63 150.67 221.92
  C 150.79 234.12 159.71 242.71 172.02 242.96
  Q 177.48 243.08 193.46 242.97
  Q 194.00 242.97 194.24 242.49
  Q 197.00 237.20 203.16 237.21
  A 0.77 0.77 0.0 0 0 203.85 236.78
  L 204.52 235.47
  Q 204.77 234.99 205.31 234.99
  Q 206.61 235.01 207.11 236.23
  A 1.01 0.99 47.7 0 1 207.08 237.03
  Q 206.30 238.60 207.48 239.57
  A 1.43 1.42 -33.5 0 0 208.78 239.83
  Q 210.67 239.26 212.54 239.72
  A 1.13 1.13 0.0 0 1 212.32 241.95
  L 207.74 242.12
  A 0.65 0.64 -90.0 0 0 207.12 242.75
  L 206.96 248.62
  A 0.68 0.67 -1.5 0 0 207.69 249.31
  L 211.75 248.95
  A 1.45 1.44 25.2 0 1 212.71 251.58
  Q 211.98 252.08 209.22 251.64
  Q 206.77 251.25 207.26 253.69
  Q 207.63 255.51 206.04 256.17
  A 1.31 1.31 0.0 0 1 204.99 256.15
  Q 204.02 255.71 204.03 254.49
  A 0.53 0.53 0.0 0 0 203.48 253.95
  Z"
/>
<rect fill="#fad502" x="124.14" y="219.34" width="15.30" height="5.64" rx="2.71"/>
<rect fill="#fad502" x="-2.75" y="-7.58" transform="translate(143.30,250.19) rotate(44.6)" width="5.50" height="15.16" rx="2.55"/>
</svg>
