<?xml version="1.0" encoding="UTF-8" standalone="no"?>
<svg xmlns="http://www.w3.org/2000/svg" version="1.2" baseProfile="tiny" viewBox="0.00 0.00 128.00 128.00">
<path fill="#000000" d="
  M 62.05 0.00
  L 66.08 0.00
  C 100.13 2.09 125.74 27.06 128.00 61.09
  L 128.00 67.49
  C 124.53 101.41 100.51 126.10 66.16 128.00
  L 61.21 128.00
  C 27.23 125.81 1.76 99.94 0.00 65.92
  L 0.00 62.21
  C 1.56 27.14 27.48 2.60 62.05 0.00
  Z
  M 113.22 64.00
  A 49.22 49.22 0.0 0 0 64.00 14.78
  A 49.22 49.22 0.0 0 0 14.78 64.00
  A 49.22 49.22 0.0 0 0 64.00 113.22
  A 49.22 49.22 0.0 0 0 113.22 64.00
  Z"
/>
<path fill="#000000" d="
  M 69.47 28.90
  A 0.84 0.83 -86.5 0 0 70.20 29.73
  C 81.09 31.00 90.37 39.35 90.76 50.72
  Q 90.78 51.25 90.25 51.25
  L 77.74 51.25
  A 0.69 0.69 0.0 0 1 77.06 50.67
  Q 76.07 44.94 70.66 42.99
  A 0.87 0.87 0.0 0 0 69.50 43.81
  L 69.50 56.74
  A 0.61 0.60 -88.0 0 0 70.06 57.35
  C 101.81 59.61 96.93 94.46 69.96 98.03
  Q 69.50 98.09 69.50 98.55
  L 69.50 106.75
  Q 69.50 107.50 68.75 107.50
  L 57.00 107.50
  A 0.50 0.50 0.0 0 1 56.50 107.00
  L 56.50 98.26
  Q 56.50 97.82 56.06 97.72
  C 44.45 95.20 35.48 86.46 34.51 74.57
  Q 34.46 74.00 35.04 74.00
  L 47.30 74.00
  A 1.28 1.27 -3.8 0 1 48.57 75.10
  Q 49.50 81.61 55.42 84.23
  A 0.77 0.77 0.0 0 0 56.50 83.52
  L 56.50 69.46
  A 0.81 0.80 -86.4 0 0 55.80 68.66
  C 27.37 65.11 29.95 34.16 56.02 29.54
  Q 56.50 29.45 56.50 28.97
  L 56.50 20.76
  Q 56.50 20.27 56.99 20.27
  L 68.89 20.22
  A 0.61 0.60 -0.0 0 1 69.51 20.83
  L 69.47 28.90
  Z
  M 56.42 54.56
  L 56.61 43.70
  A 0.24 0.24 0.0 0 0 56.38 43.46
  L 56.24 43.45
  A 6.50 5.60 1.0 0 0 49.64 48.94
  L 49.64 49.08
  A 6.50 5.60 1.0 0 0 56.04 54.79
  L 56.18 54.79
  A 0.24 0.24 0.0 0 0 56.42 54.56
  Z
  M 69.81 71.49
  L 69.65 83.91
  A 0.27 0.27 0.0 0 0 69.92 84.18
  L 70.08 84.18
  A 8.47 6.45 0.7 0 0 78.63 77.83
  L 78.63 77.77
  A 8.47 6.45 0.7 0 0 70.24 71.22
  L 70.08 71.22
  A 0.27 0.27 0.0 0 0 69.81 71.49
  Z"
/>
</svg>
