<?xml version="1.0" encoding="UTF-8" standalone="no"?>
<svg xmlns="http://www.w3.org/2000/svg" version="1.2" baseProfile="tiny" viewBox="0.00 0.00 128.00 128.00">
<path fill="#000000" d="
  M 60.54 0.00
  L 67.04 0.00
  Q 77.58 1.06 87.75 4.29
  A 0.40 0.40 0.0 0 1 87.91 4.96
  L 78.45 14.42
  Q 78.11 14.76 77.65 14.65
  Q 50.08 8.11 30.06 25.79
  C 6.60 46.52 7.33 83.45 31.56 103.44
  C 65.26 131.24 113.39 107.08 115.14 64.68
  Q 115.17 64.11 115.74 64.11
  L 128.00 64.18
  L 128.00 67.07
  C 125.01 100.74 100.12 126.58 65.91 128.00
  L 61.18 128.00
  C 27.69 125.84 2.40 100.37 0.00 66.96
  L 0.00 60.72
  C 2.28 27.35 27.42 3.08 60.54 0.00
  Z"
/>
<path fill="#000000" d="
  M 29.30 60.33
  L 37.31 52.32
  A 0.62 0.62 0.0 0 1 38.19 52.32
  L 57.19 71.31
  A 0.62 0.62 0.0 0 0 58.07 71.31
  L 112.28 17.10
  A 0.62 0.62 0.0 0 1 113.16 17.10
  L 121.17 25.07
  A 0.62 0.62 0.0 0 1 121.17 25.95
  L 58.01 89.11
  A 0.62 0.62 0.0 0 1 57.13 89.11
  L 29.30 61.21
  A 0.62 0.62 0.0 0 1 29.30 60.33
  Z"
/>
</svg>
