<?xml version="1.0" encoding="UTF-8" standalone="no"?>
<svg xmlns="http://www.w3.org/2000/svg" version="1.2" baseProfile="tiny" viewBox="0.00 0.00 128.00 128.00">
<path fill="#000000" d="
  M 128.00 50.33
  L 128.00 75.94
  L 96.65 75.95
  Q 96.13 75.95 96.09 75.43
  C 95.86 71.95 97.44 64.07 92.01 64.00
  Q 87.61 63.95 83.92 64.02
  A 4.00 3.99 89.5 0 0 80.00 68.02
  L 80.00 75.25
  Q 80.00 76.00 79.25 76.00
  L 48.73 76.00
  A 0.72 0.72 0.0 0 1 48.01 75.29
  C 47.98 73.00 48.85 66.64 46.41 64.84
  C 44.43 63.38 38.32 63.97 35.91 64.02
  A 4.00 4.00 0.0 0 0 32.00 68.02
  L 32.00 75.45
  Q 32.00 75.94 31.51 75.94
  L 0.00 75.91
  L 0.00 49.64
  Q 5.98 40.51 14.75 33.50
  C 17.92 30.97 27.33 32.03 31.43 31.97
  Q 31.98 31.96 31.98 31.41
  C 32.13 18.26 30.47 8.02 47.29 8.01
  Q 63.60 8.00 79.91 7.99
  C 97.29 7.98 95.94 17.33 96.01 31.40
  Q 96.01 31.94 96.56 31.96
  C 102.53 32.09 110.03 30.47 114.74 34.81
  C 119.82 39.49 126.65 45.25 128.00 50.33
  Z
  M 84.00 20.60
  A 0.60 0.60 0.0 0 0 83.40 20.00
  L 44.60 20.00
  A 0.60 0.60 0.0 0 0 44.00 20.60
  L 44.00 31.40
  A 0.60 0.60 0.0 0 0 44.60 32.00
  L 83.40 32.00
  A 0.60 0.60 0.0 0 0 84.00 31.40
  L 84.00 20.60
  Z"
/>
<path fill="#000000" d="
  M 128.00 84.01
  L 128.00 113.01
  C 126.51 119.06 122.75 120.00 116.77 120.00
  Q 63.58 120.00 10.40 119.99
  C 4.81 119.99 1.20 118.51 0.00 112.92
  L 0.00 84.05
  L 31.51 84.03
  Q 32.00 84.03 32.00 84.52
  L 32.00 92.00
  A 4.00 4.00 0.0 0 0 36.00 96.00
  L 44.00 96.00
  A 4.00 4.00 0.0 0 0 48.00 92.00
  L 48.00 84.50
  A 0.50 0.50 0.0 0 1 48.50 84.00
  L 79.50 84.00
  Q 80.00 84.00 80.00 84.50
  L 80.00 92.00
  A 4.00 4.00 0.0 0 0 84.00 96.00
  L 92.00 96.00
  A 4.00 4.00 0.0 0 0 96.00 92.00
  L 96.00 84.52
  A 0.51 0.51 0.0 0 1 96.51 84.01
  L 128.00 84.01
  Z"
/>
</svg>
