<?xml version="1.0" encoding="UTF-8" standalone="no"?>
<svg xmlns="http://www.w3.org/2000/svg" version="1.2" baseProfile="tiny" viewBox="0.00 0.00 128.00 128.00">
<path fill="#ffffff" d="
  M 72.02 72.56
  Q 71.98 91.30 71.98 110.02
  C 71.98 114.46 72.13 118.54 67.72 119.68
  C 62.78 120.96 56.20 120.14 56.15 113.69
  Q 55.96 93.12 56.00 72.99
  A 1.01 1.01 0.0 0 0 54.99 71.98
  Q 34.96 72.03 14.75 72.00
  C 5.16 71.98 5.33 56.04 14.50 56.04
  Q 34.98 56.02 55.46 55.99
  Q 55.98 55.98 55.98 55.47
  Q 56.04 36.10 55.98 16.81
  C 55.97 10.60 57.80 7.71 64.25 7.82
  C 70.68 7.92 72.02 10.97 72.01 17.00
  Q 71.99 36.26 72.01 55.47
  A 0.51 0.51 0.0 0 0 72.52 55.98
  Q 90.79 56.04 109.23 55.97
  C 116.79 55.94 121.51 57.25 120.02 66.10
  C 119.12 71.41 116.15 71.99 111.11 71.99
  Q 91.84 71.97 72.55 72.02
  Q 72.02 72.02 72.02 72.56
  Z"
/>
</svg>
