<?xml version="1.0" encoding="UTF-8" standalone="no"?>
<svg xmlns="http://www.w3.org/2000/svg" version="1.2" baseProfile="tiny" viewBox="0.00 0.00 128.00 128.00">
<path fill="#ffffff" d="
  M 73.28 75.40
  Q 75.73 86.40 80.02 108.50
  Q 80.33 110.08 80.26 111.23
  Q 80.22 111.81 79.78 112.17
  L 65.09 124.26
  Q 64.58 124.67 64.08 124.26
  L 49.26 112.23
  A 2.34 2.34 0.0 0 1 48.45 109.94
  L 55.34 76.50
  A 1.14 1.14 0.0 0 0 54.66 75.23
  Q 46.73 72.00 39.47 67.44
  Q 38.96 67.12 38.46 67.46
  C 30.23 72.95 29.15 79.18 29.03 89.42
  Q 28.93 98.29 28.67 107.16
  A 0.59 0.58 1.5 0 1 28.07 107.72
  L 19.49 107.51
  Q 19.09 107.50 19.08 107.10
  C 18.75 91.10 16.35 70.02 32.84 60.12
  Q 33.27 59.86 33.06 59.41
  Q 29.30 51.13 28.71 48.76
  C 26.21 38.86 28.46 25.02 35.46 16.47
  C 60.80 -14.46 109.89 10.14 99.32 49.73
  Q 98.70 52.07 95.53 58.82
  Q 95.30 59.32 95.72 59.66
  C 98.38 61.80 101.53 64.03 103.46 66.44
  C 108.05 72.17 108.16 78.86 108.13 86.50
  Q 108.08 96.80 107.97 107.11
  Q 107.96 107.68 107.39 107.66
  L 101.21 107.44
  Q 100.64 107.42 100.66 106.85
  C 100.99 96.02 101.04 86.54 98.53 76.76
  Q 96.93 70.54 90.01 67.02
  A 0.78 0.77 39.3 0 0 89.20 67.10
  Q 82.15 72.52 73.59 74.89
  Q 73.19 75.00 73.28 75.40
  Z
  M 91.92 39.48
  A 27.64 27.64 0.0 0 0 64.28 11.84
  A 27.64 27.64 0.0 0 0 36.64 39.48
  A 27.64 27.64 0.0 0 0 64.28 67.12
  A 27.64 27.64 0.0 0 0 91.92 39.48
  Z
  M 58.62 104.54
  C 57.81 108.14 61.11 110.90 63.88 112.23
  A 0.96 0.95 38.4 0 0 64.90 112.12
  L 69.86 108.20
  Q 70.25 107.89 70.25 107.40
  C 70.25 106.07 70.33 104.69 70.03 103.38
  C 68.26 95.82 67.35 86.84 64.87 78.91
  Q 64.64 78.16 64.39 78.90
  C 61.90 86.56 60.78 95.01 58.62 104.54
  Z"
/>
</svg>
