<?xml version="1.0" encoding="UTF-8" standalone="no"?>
<svg xmlns="http://www.w3.org/2000/svg" version="1.2" baseProfile="tiny" viewBox="0.00 0.00 128.00 128.00">
<path fill="#ffffff" d="
  M 97.05 93.49
  Q 100.16 95.84 98.38 99.51
  Q 98.17 99.95 97.69 99.95
  L 79.95 100.02
  A 0.97 0.97 0.0 0 0 78.99 101.00
  Q 79.03 107.33 78.99 114.03
  C 78.96 118.12 76.04 117.88 72.61 117.93
  Q 59.77 118.11 46.98 117.96
  Q 45.00 117.93 45.00 115.95
  L 45.00 100.97
  A 0.97 0.96 -0.0 0 0 44.03 100.01
  Q 34.38 99.99 24.53 100.00
  Q 16.78 100.01 13.17 98.61
  C 4.74 95.34 0.40 86.48 0.77 77.58
  C 1.39 62.86 1.02 47.95 1.00 33.21
  C 0.98 18.64 9.67 9.46 24.74 9.85
  C 49.59 10.49 74.63 10.04 99.50 10.05
  C 108.19 10.06 116.29 13.46 120.22 21.45
  C 123.27 27.66 122.23 37.55 121.88 45.04
  A 0.97 0.97 0.0 0 1 120.99 45.96
  C 118.90 46.16 114.94 46.56 114.96 43.25
  C 115.02 28.66 116.22 17.34 97.50 17.18
  Q 63.24 16.89 28.98 17.27
  C 16.17 17.42 7.97 20.03 8.02 34.09
  Q 8.08 53.09 8.02 72.09
  C 7.97 85.70 10.40 93.03 25.06 93.02
  Q 60.40 92.98 95.62 93.01
  A 2.41 2.36 63.0 0 1 97.05 93.49
  Z
  M 71.0082 100.8266
  A 0.81 0.81 0.0 0 0 70.1996 100.0152
  L 52.8196 99.9848
  A 0.81 0.81 0.0 0 0 52.0082 100.7934
  L 51.9918 110.1734
  A 0.81 0.81 0.0 0 0 52.8004 110.9848
  L 70.1804 111.0152
  A 0.81 0.81 0.0 0 0 70.9918 110.2066
  L 71.0082 100.8266
  Z"
/>
<path fill="#ffffff" d="
  M 49.27 28.94
  A 2.54 2.54 0.0 0 1 51.82 31.46
  L 51.93 52.26
  A 4.64 3.05 89.7 0 1 48.90 56.92
  L 26.28 57.04
  A 4.64 3.05 89.7 0 1 23.21 52.42
  L 23.10 31.62
  A 2.54 2.54 0.0 0 1 25.63 29.06
  L 49.27 28.94
  Z
  M 43.9893 36.8887
  A 0.90 0.90 0.0 0 0 43.0878 35.9902
  L 31.8878 36.0098
  A 0.90 0.90 0.0 0 0 30.9894 36.9114
  L 31.0107 49.1113
  A 0.90 0.90 0.0 0 0 31.9122 50.0098
  L 43.1122 49.9902
  A 0.90 0.90 0.0 0 0 44.0106 49.0886
  L 43.9893 36.8887
  Z"
/>
<rect fill="#ffffff" x="-20.98" y="-3.97" transform="translate(79.01,37.03) rotate(-0.1)" width="41.96" height="7.94" rx="3.87"/>
<rect fill="#ffffff" x="-11.93" y="-3.47" transform="translate(69.99,48.48) rotate(0.1)" width="23.86" height="6.94" rx="2.18"/>
<path fill="#ffffff" d="
  M 121.40 81.11
  Q 123.90 83.93 126.04 86.71
  C 130.09 91.99 122.90 96.02 119.49 90.79
  Q 117.96 88.43 116.05 86.35
  A 1.09 1.05 66.2 0 0 115.20 86.00
  C 112.77 86.13 110.11 87.18 107.94 87.08
  C 81.48 85.82 85.24 49.52 108.89 51.49
  C 123.60 52.72 130.06 69.04 121.37 80.32
  A 0.62 0.62 0.0 0 0 121.40 81.11
  Z
  M 117.89 69.33
  A 10.44 10.44 0.0 0 0 107.45 58.89
  A 10.44 10.44 0.0 0 0 97.01 69.33
  A 10.44 10.44 0.0 0 0 107.45 79.77
  A 10.44 10.44 0.0 0 0 117.89 69.33
  Z"
/>
<rect fill="#ffffff" x="-28.77" y="-3.50" transform="translate(53.88,65.49) rotate(-0.1)" width="57.54" height="7.00" rx="2.31"/>
<rect fill="#ffffff" x="25.05" y="74.98" width="57.60" height="7.00" rx="2.39"/>
</svg>
