<?xml version="1.0" encoding="UTF-8" standalone="no"?>
<svg xmlns="http://www.w3.org/2000/svg" version="1.2" baseProfile="tiny" viewBox="0.00 0.00 128.00 128.00">
<g stroke-width="2.00" fill="none" stroke-linecap="butt">
<path stroke="#2bbd69" vector-effect="non-scaling-stroke" d="
  M 117.10 71.27
  Q 110.57 102.98 83.08 113.66
  C 63.13 121.41 40.83 116.42 25.79 101.21
  Q 14.96 90.27 11.08 73.46"
/>
<path stroke="#2bbd69" vector-effect="non-scaling-stroke" d="
  M 31.39 75.25
  Q 29.78 76.23 29.16 77.60
  Q 28.94 78.09 29.32 78.47
  L 52.97 102.11
  A 0.49 0.48 44.6 0 0 53.66 102.11
  L 96.12 59.76
  Q 96.52 59.36 96.17 58.91
  L 94.20 56.38"
/>
<path stroke="#8ddeb1" vector-effect="non-scaling-stroke" d="
  M 94.20 56.38
  L 96.22 54.27
  Q 96.65 53.81 96.20 53.36
  L 85.83 43.14
  Q 85.34 42.65 84.85 43.14
  L 53.72 74.27
  Q 53.34 74.65 52.96 74.27
  L 40.45 61.72
  Q 40.05 61.33 39.65 61.72
  L 29.10 72.14
  Q 28.72 72.51 29.09 72.88
  L 31.39 75.25"
/>
<path stroke="#8acfa9" vector-effect="non-scaling-stroke" d="
  M 94.20 56.38
  L 53.89 96.52
  Q 53.28 97.14 52.66 96.52
  L 31.39 75.25"
/>
</g>
<path fill="#2ecc71" d="
  M 117.10 71.27
  Q 110.57 102.98 83.08 113.66
  C 63.13 121.41 40.83 116.42 25.79 101.21
  Q 14.96 90.27 11.08 73.46
  Q 8.06 46.24 24.85 27.94
  C 52.80 -2.54 102.39 9.37 114.94 48.10
  Q 118.26 58.33 117.10 71.27
  Z
  M 31.39 75.25
  Q 29.78 76.23 29.16 77.60
  Q 28.94 78.09 29.32 78.47
  L 52.97 102.11
  A 0.49 0.48 44.6 0 0 53.66 102.11
  L 96.12 59.76
  Q 96.52 59.36 96.17 58.91
  L 94.20 56.38
  L 96.22 54.27
  Q 96.65 53.81 96.20 53.36
  L 85.83 43.14
  Q 85.34 42.65 84.85 43.14
  L 53.72 74.27
  Q 53.34 74.65 52.96 74.27
  L 40.45 61.72
  Q 40.05 61.33 39.65 61.72
  L 29.10 72.14
  Q 28.72 72.51 29.09 72.88
  L 31.39 75.25
  Z"
/>
<path fill="#ecf0f1" d="
  M 94.20 56.38
  L 53.89 96.52
  Q 53.28 97.14 52.66 96.52
  L 31.39 75.25
  L 29.09 72.88
  Q 28.72 72.51 29.10 72.14
  L 39.65 61.72
  Q 40.05 61.33 40.45 61.72
  L 52.96 74.27
  Q 53.34 74.65 53.72 74.27
  L 84.85 43.14
  Q 85.34 42.65 85.83 43.14
  L 96.20 53.36
  Q 96.65 53.81 96.22 54.27
  L 94.20 56.38
  Z"
/>
<path fill="#27ae60" d="
  M 94.20 56.38
  L 96.17 58.91
  Q 96.52 59.36 96.12 59.76
  L 53.66 102.11
  A 0.49 0.48 44.6 0 1 52.97 102.11
  L 29.32 78.47
  Q 28.94 78.09 29.16 77.60
  Q 29.78 76.23 31.39 75.25
  L 52.66 96.52
  Q 53.28 97.14 53.89 96.52
  L 94.20 56.38
  Z"
/>
<path fill="#27ae60" d="
  M 117.10 71.27
  Q 116.50 89.54 105.29 103.03
  C 81.30 131.89 37.73 128.13 18.14 96.54
  Q 11.74 86.23 11.08 73.46
  Q 14.96 90.27 25.79 101.21
  C 40.83 116.42 63.13 121.41 83.08 113.66
  Q 110.57 102.98 117.10 71.27
  Z"
/>
</svg>
