<?xml version="1.0" encoding="UTF-8" standalone="no"?>
<svg xmlns="http://www.w3.org/2000/svg" version="1.2" baseProfile="tiny" viewBox="0.00 0.00 128.00 128.00">
<path stroke="#808080" stroke-width="2.00" fill="none" stroke-linecap="butt" vector-effect="non-scaling-stroke" d="
  M 63.64 53.61
  Q 55.06 45.45 46.85 36.92
  C 42.53 32.43 39.71 36.60 36.83 39.61
  C 34.38 42.17 34.25 44.25 36.83 46.69
  Q 40.80 50.44 53.68 63.59
  Q 54.08 64.00 53.67 64.41
  L 36.15 81.92
  A 3.97 3.96 -44.3 0 0 36.08 87.46
  C 38.52 90.03 42.33 95.51 46.28 91.51
  Q 54.87 82.83 63.66 74.17
  Q 64.00 73.84 64.34 74.18
  L 82.23 92.07
  A 3.59 3.58 -44.9 0 0 87.30 92.07
  L 92.13 87.24
  A 3.55 3.54 45.1 0 0 92.13 82.23
  L 74.09 64.19
  A 0.34 0.34 0.0 0 1 74.09 63.71
  Q 82.69 55.10 91.17 46.66
  Q 94.76 43.09 91.54 39.94
  C 88.91 37.37 85.58 32.52 81.75 36.34
  Q 73.11 44.97 64.47 53.60
  Q 64.06 54.01 63.64 53.61"
/>
<path fill="#000000" d="
  M 127.34 64.00
  A 63.34 63.34 0.0 0 1 64.00 127.34
  A 63.34 63.34 0.0 0 1 0.66 64.00
  A 63.34 63.34 0.0 0 1 64.00 0.66
  A 63.34 63.34 0.0 0 1 127.34 64.00
  Z
  M 63.64 53.61
  Q 55.06 45.45 46.85 36.92
  C 42.53 32.43 39.71 36.60 36.83 39.61
  C 34.38 42.17 34.25 44.25 36.83 46.69
  Q 40.80 50.44 53.68 63.59
  Q 54.08 64.00 53.67 64.41
  L 36.15 81.92
  A 3.97 3.96 -44.3 0 0 36.08 87.46
  C 38.52 90.03 42.33 95.51 46.28 91.51
  Q 54.87 82.83 63.66 74.17
  Q 64.00 73.84 64.34 74.18
  L 82.23 92.07
  A 3.59 3.58 -44.9 0 0 87.30 92.07
  L 92.13 87.24
  A 3.55 3.54 45.1 0 0 92.13 82.23
  L 74.09 64.19
  A 0.34 0.34 0.0 0 1 74.09 63.71
  Q 82.69 55.10 91.17 46.66
  Q 94.76 43.09 91.54 39.94
  C 88.91 37.37 85.58 32.52 81.75 36.34
  Q 73.11 44.97 64.47 53.60
  Q 64.06 54.01 63.64 53.61
  Z"
/>
<path fill="#ffffff" d="
  M 64.47 53.60
  Q 73.11 44.97 81.75 36.34
  C 85.58 32.52 88.91 37.37 91.54 39.94
  Q 94.76 43.09 91.17 46.66
  Q 82.69 55.10 74.09 63.71
  A 0.34 0.34 0.0 0 0 74.09 64.19
  L 92.13 82.23
  A 3.55 3.54 45.1 0 1 92.13 87.24
  L 87.30 92.07
  A 3.59 3.58 -44.9 0 1 82.23 92.07
  L 64.34 74.18
  Q 64.00 73.84 63.66 74.17
  Q 54.87 82.83 46.28 91.51
  C 42.33 95.51 38.52 90.03 36.08 87.46
  A 3.97 3.96 -44.3 0 1 36.15 81.92
  L 53.67 64.41
  Q 54.08 64.00 53.68 63.59
  Q 40.80 50.44 36.83 46.69
  C 34.25 44.25 34.38 42.17 36.83 39.61
  C 39.71 36.60 42.53 32.43 46.85 36.92
  Q 55.06 45.45 63.64 53.61
  Q 64.06 54.01 64.47 53.60
  Z"
/>
</svg>
