<?xml version="1.0" encoding="UTF-8" standalone="no"?>
<svg xmlns="http://www.w3.org/2000/svg" version="1.2" baseProfile="tiny" viewBox="0.00 0.00 128.00 128.00">
<path fill="#000000" d="
  M 14.87 88.11
  L 49.99 25.32
  A 16.05 16.05 0.0 0 1 78.01 25.32
  L 113.13 88.11
  A 16.05 16.05 0.0 0 1 99.13 112.00
  L 28.87 112.00
  A 16.05 16.05 0.0 0 1 14.87 88.11
  Z
  M 24.08 93.17
  A 5.44 5.44 0.0 0 0 28.84 101.25
  L 99.16 101.25
  A 5.44 5.44 0.0 0 0 103.92 93.17
  L 68.76 29.81
  A 5.44 5.44 0.0 0 0 59.24 29.81
  L 24.08 93.17
  Z"
/>
<rect fill="#000000" x="58.75" y="48.03" width="10.50" height="26.50" rx="4.93"/>
<circle fill="#000000" cx="63.98" cy="85.30" r="5.26"/>
</svg>
