<?xml version="1.0" encoding="UTF-8" standalone="no"?>
<svg xmlns="http://www.w3.org/2000/svg" version="1.2" baseProfile="tiny" viewBox="0.00 0.00 128.00 128.00">
<path fill="#ffffff" d="
  M 38.39 44.36
  Q 46.77 28.88 50.29 23.80
  Q 56.27 15.17 66.66 16.81
  C 74.78 18.10 77.48 23.15 81.77 30.83
  Q 95.70 55.77 109.54 80.78
  C 114.77 90.23 118.45 95.74 113.14 104.85
  C 109.45 111.18 104.29 111.94 96.79 111.96
  Q 48.94 112.10 27.50 112.01
  C 22.49 111.98 18.37 109.80 15.42 105.66
  Q 9.24 96.94 14.73 86.75
  C 21.03 75.07 30.46 59.02 38.39 44.36
  Z
  M 24.62 92.87
  C 23.04 95.69 24.18 99.06 26.93 100.36
  Q 28.31 101.01 31.67 101.02
  Q 64.21 101.06 96.75 100.92
  C 102.43 100.90 105.77 98.05 102.62 92.39
  Q 85.97 62.46 69.68 32.32
  C 66.71 26.82 62.12 25.46 58.68 31.67
  Q 41.75 62.33 24.62 92.87
  Z"
/>
<path fill="#ffffff" d="
  M 58.72 50.72
  C 59.34 47.14 63.75 47.73 66.28 48.02
  C 68.56 48.28 69.36 49.89 69.62 52.10
  Q 70.62 60.34 69.77 69.50
  C 69.07 77.12 59.14 77.33 58.19 69.07
  Q 57.13 59.87 58.72 50.72
  Z"
/>
<ellipse fill="#ffffff" cx="0.00" cy="0.00" transform="translate(64.00,85.28) rotate(1.1)" rx="5.99" ry="5.53"/>
</svg>
