<?xml version="1.0" encoding="UTF-8" standalone="no"?>
<svg xmlns="http://www.w3.org/2000/svg" version="1.2" baseProfile="tiny" viewBox="0.00 0.00 80.00 80.00">
<path fill="#006400" d="
  M 38.07 0.00
  L 42.34 0.00
  Q 46.23 2.39 44.84 7.82
  A 1.84 1.84 0.0 0 0 46.33 10.09
  C 49.69 10.64 56.42 11.91 58.19 15.08
  C 60.41 19.07 56.48 24.19 51.82 22.93
  C 45.40 21.18 37.48 19.07 31.46 22.14
  C 27.33 24.26 26.45 28.55 30.98 31.04
  C 36.47 34.06 47.41 36.03 52.99 38.45
  C 71.37 46.40 63.07 68.11 45.66 70.10
  Q 45.11 70.17 45.06 70.72
  C 44.75 74.19 46.27 78.64 41.66 80.00
  L 37.92 80.00
  Q 33.91 77.96 35.11 72.43
  A 2.11 2.11 0.0 0 0 33.55 69.94
  C 29.84 69.01 20.58 67.12 18.00 64.35
  C 13.78 59.84 19.30 53.66 25.41 56.03
  C 31.67 58.47 44.92 61.71 50.51 56.79
  Q 52.39 55.13 52.05 52.72
  C 51.33 47.59 36.61 44.79 32.33 43.66
  C 22.86 41.15 14.54 33.91 17.45 23.24
  Q 20.63 11.54 33.90 10.01
  A 1.30 1.29 -5.5 0 0 35.05 8.62
  C 34.79 5.23 34.13 1.44 38.07 0.00
  Z"
/>
</svg>
