<?xml version="1.0" encoding="UTF-8" standalone="no"?>
<svg xmlns="http://www.w3.org/2000/svg" version="1.2" baseProfile="tiny" viewBox="0.00 0.00 128.00 128.00">
<path fill="#000000" d="
  M 21.58 21.31
  A 0.27 0.27 0.0 0 0 21.31 21.58
  L 21.31 106.25
  A 0.44 0.44 0.0 0 0 21.75 106.69
  L 106.25 106.69
  A 0.44 0.44 0.0 0 0 106.69 106.25
  L 106.69 69.94
  Q 106.69 69.31 107.31 69.31
  L 116.75 69.31
  Q 117.27 69.31 117.28 69.84
  Q 117.40 87.24 117.27 104.63
  C 117.20 114.05 112.89 117.32 103.91 117.32
  Q 65.29 117.29 26.67 117.32
  Q 19.13 117.33 16.51 116.11
  C 10.95 113.53 10.67 108.48 10.68 102.42
  Q 10.69 63.06 10.70 23.70
  C 10.71 15.38 14.07 10.80 22.53 10.74
  Q 40.35 10.60 58.16 10.72
  Q 58.69 10.73 58.69 11.25
  L 58.69 20.94
  A 0.38 0.37 0.0 0 1 58.31 21.31
  L 21.58 21.31
  Z"
/>
<path fill="#000000" d="
  M 67.27 90.27
  C 63.73 93.78 59.23 95.69 54.24 95.80
  Q 43.46 96.04 32.56 96.01
  Q 32.02 96.01 32.02 95.47
  Q 31.96 84.44 32.02 73.51
  C 32.05 67.75 35.40 62.87 39.80 58.46
  Q 60.46 37.74 81.18 17.08
  Q 85.86 12.40 88.97 11.36
  C 94.85 9.37 99.19 11.63 103.69 15.94
  C 107.92 20.01 115.10 25.93 116.72 31.32
  C 118.82 38.25 115.48 42.34 110.39 47.41
  Q 88.88 68.89 67.27 90.27
  Z
  M 86.79 27.13
  L 100.84 41.23
  A 0.45 0.45 0.0 0 0 101.48 41.23
  L 105.64 37.08
  A 2.91 2.84 -44.9 0 0 105.70 33.01
  L 95.03 22.30
  A 2.91 2.84 -44.9 0 0 90.96 22.35
  L 86.80 26.50
  A 0.45 0.45 0.0 0 0 86.79 27.13
  Z
  M 43.41 71.18
  Q 41.87 76.81 42.97 84.88
  Q 43.03 85.33 43.48 85.32
  Q 48.61 85.28 53.76 85.34
  C 57.53 85.38 60.26 82.39 62.95 79.71
  Q 78.16 64.61 93.28 49.38
  Q 93.63 49.03 93.28 48.68
  L 79.41 34.82
  Q 78.98 34.39 78.55 34.82
  Q 63.23 50.04 48.05 65.30
  C 46.36 67.00 43.98 69.05 43.41 71.18
  Z"
/>
</svg>
