<?xml version="1.0" encoding="UTF-8" standalone="no"?>
<svg xmlns="http://www.w3.org/2000/svg" version="1.2" baseProfile="tiny" viewBox="0.00 0.00 128.00 128.00">
<path fill="#000000" d="
  M 128.00 28.01
  L 128.00 35.99
  L 31.77 36.00
  Q 31.28 36.00 31.09 36.45
  C 26.77 46.64 13.48 46.28 8.86 36.46
  Q 8.65 36.01 8.15 36.01
  L 0.00 35.96
  L 0.00 28.10
  L 8.26 28.00
  Q 8.74 27.99 8.95 27.55
  C 13.54 17.69 26.66 17.28 31.02 27.53
  A 0.77 0.77 0.0 0 0 31.73 28.00
  L 128.00 28.01
  Z
  M 23.99 32.00
  A 3.99 3.99 0.0 0 0 20.00 28.01
  A 3.99 3.99 0.0 0 0 16.01 32.00
  A 3.99 3.99 0.0 0 0 20.00 35.99
  A 3.99 3.99 0.0 0 0 23.99 32.00
  Z"
/>
<path fill="#000000" d="
  M 128.00 59.99
  L 128.00 68.03
  L 119.71 68.02
  Q 119.20 68.02 119.00 68.49
  C 114.67 78.71 101.53 78.26 96.93 68.44
  Q 96.73 68.00 96.24 68.00
  L 0.00 67.98
  L 0.00 60.04
  L 96.18 60.01
  Q 96.64 60.01 96.84 59.59
  C 101.46 49.71 114.66 49.33 119.07 59.47
  Q 119.27 59.94 119.79 59.95
  L 128.00 59.99
  Z
  M 111.99 64.00
  A 3.99 3.99 0.0 0 0 108.00 60.01
  A 3.99 3.99 0.0 0 0 104.01 64.00
  A 3.99 3.99 0.0 0 0 108.00 67.99
  A 3.99 3.99 0.0 0 0 111.99 64.00
  Z"
/>
<path fill="#000000" d="
  M 128.00 92.02
  L 128.00 100.00
  L 31.77 100.00
  Q 31.28 100.00 31.09 100.45
  C 26.77 110.66 13.51 110.27 8.86 100.46
  Q 8.64 100.01 8.15 100.01
  L 0.00 99.97
  L 0.00 92.14
  L 8.14 92.00
  Q 8.64 91.99 8.85 91.54
  C 13.47 81.80 26.71 81.29 31.04 91.42
  A 0.97 0.96 -11.5 0 0 31.93 92.00
  L 128.00 92.02
  Z
  M 23.99 96.00
  A 3.99 3.99 0.0 0 0 20.00 92.01
  A 3.99 3.99 0.0 0 0 16.01 96.00
  A 3.99 3.99 0.0 0 0 20.00 99.99
  A 3.99 3.99 0.0 0 0 23.99 96.00
  Z"
/>
</svg>
