<?xml version="1.0" encoding="UTF-8" standalone="no"?>
<svg xmlns="http://www.w3.org/2000/svg" version="1.2" baseProfile="tiny" viewBox="0.00 0.00 128.00 128.00">
<path fill="#000000" d="
  M 111.25 40.00
  L 16.50 40.00
  A 0.50 0.50 0.0 0 0 16.00 40.50
  L 16.00 95.50
  A 0.50 0.50 0.0 0 0 16.50 96.00
  L 67.50 96.00
  Q 68.00 96.00 68.00 96.50
  L 68.00 103.28
  A 0.71 0.71 0.0 0 1 67.29 103.99
  Q 42.82 104.03 18.40 103.98
  C 11.55 103.97 8.02 101.51 8.01 94.57
  Q 7.99 68.77 8.00 42.98
  C 8.00 35.64 10.20 31.96 17.75 32.00
  Q 28.57 32.06 39.40 31.97
  Q 39.96 31.97 39.97 31.41
  Q 40.06 25.11 40.01 18.97
  C 39.96 11.82 42.11 8.02 49.52 8.01
  Q 63.09 8.00 76.65 7.99
  C 84.49 7.99 88.03 10.09 87.98 18.12
  Q 87.94 24.75 88.03 31.42
  Q 88.04 31.97 88.59 31.97
  Q 98.85 32.06 108.98 32.00
  C 116.48 31.96 119.94 34.22 119.98 41.82
  Q 120.03 50.56 119.99 59.29
  Q 119.98 60.00 119.28 60.00
  L 112.50 60.00
  A 0.50 0.50 0.0 0 1 112.00 59.50
  L 112.00 40.75
  Q 112.00 40.00 111.25 40.00
  Z
  M 80.00 16.60
  A 0.60 0.60 0.0 0 0 79.40 16.00
  L 48.60 16.00
  A 0.60 0.60 0.0 0 0 48.00 16.60
  L 48.00 31.40
  A 0.60 0.60 0.0 0 0 48.60 32.00
  L 79.40 32.00
  A 0.60 0.60 0.0 0 0 80.00 31.40
  L 80.00 16.60
  Z"
/>
<rect fill="#000000" x="-8.00" y="-8.00" transform="translate(84.00,76.00) rotate(-0.1)" width="16.00" height="16.00" rx="0.69"/>
<rect fill="#000000" x="-8.00" y="-8.00" transform="translate(112.00,76.00) rotate(-0.1)" width="16.00" height="16.00" rx="0.52"/>
<rect fill="#000000" x="-8.00" y="-8.00" transform="translate(84.00,104.00) rotate(-0.1)" width="16.00" height="16.00" rx="0.69"/>
<rect fill="#000000" x="-8.00" y="-8.00" transform="translate(112.00,104.00) rotate(-0.1)" width="16.00" height="16.00" rx="0.69"/>
</svg>
