<?xml version="1.0" encoding="UTF-8" standalone="no"?>
<svg xmlns="http://www.w3.org/2000/svg" version="1.2" baseProfile="tiny" viewBox="0.00 0.00 128.00 128.00">
<path fill="#000000" d="
  M 61.60 0.00
  L 66.52 0.00
  C 100.10 2.24 125.43 26.79 128.00 60.32
  L 128.00 67.78
  C 125.05 100.78 100.75 125.44 67.70 128.00
  L 60.18 128.00
  C 26.88 125.12 1.76 99.91 0.00 66.41
  L 0.00 61.43
  C 1.88 27.45 27.74 2.05 61.60 0.00
  Z
  M 113.26 64.00
  A 49.26 49.26 0.0 0 0 64.00 14.74
  A 49.26 49.26 0.0 0 0 14.74 64.00
  A 49.26 49.26 0.0 0 0 64.00 113.26
  A 49.26 49.26 0.0 0 0 113.26 64.00
  Z"
/>
<path fill="#000000" d="
  M 56.49 83.94
  L 56.48 69.27
  Q 56.48 68.76 55.97 68.70
  C 27.33 65.62 30.01 33.24 55.91 29.65
  Q 56.49 29.57 56.49 28.99
  L 56.49 20.70
  Q 56.49 20.14 57.04 20.14
  L 68.92 20.14
  Q 69.44 20.14 69.44 20.67
  L 69.43 29.01
  Q 69.43 29.57 69.99 29.64
  C 81.09 30.99 90.46 39.14 90.76 50.78
  A 0.51 0.51 0.0 0 1 90.25 51.31
  L 77.74 51.31
  Q 77.17 51.31 77.08 50.75
  Q 76.07 44.62 70.15 42.84
  A 0.49 0.48 -81.6 0 0 69.53 43.31
  L 69.53 56.74
  Q 69.53 57.17 69.96 57.22
  C 79.13 58.29 88.44 61.26 91.33 70.77
  C 95.64 84.94 82.86 96.51 69.97 98.03
  Q 69.52 98.08 69.52 98.53
  L 69.53 106.97
  Q 69.53 107.48 69.03 107.48
  L 56.99 107.48
  Q 56.49 107.48 56.49 106.99
  L 56.49 98.50
  Q 56.49 97.91 55.91 97.78
  C 44.52 95.26 35.36 86.47 34.50 74.50
  Q 34.46 73.96 35.00 73.96
  L 47.78 73.96
  A 0.68 0.67 -3.3 0 1 48.45 74.55
  Q 49.22 81.68 55.83 84.38
  A 0.48 0.48 0.0 0 0 56.49 83.94
  Z
  M 56.48 54.66
  L 56.58 43.58
  A 0.21 0.21 0.0 0 0 56.37 43.37
  L 56.22 43.37
  A 6.54 5.69 0.5 0 0 49.63 49.00
  L 49.63 49.12
  A 6.54 5.69 0.5 0 0 56.12 54.87
  L 56.27 54.87
  A 0.21 0.21 0.0 0 0 56.48 54.66
  Z
  M 69.74 71.36
  L 69.70 84.00
  A 0.22 0.22 0.0 0 0 69.92 84.23
  L 70.07 84.23
  A 8.55 6.50 0.2 0 0 78.64 77.76
  L 78.64 77.68
  A 8.55 6.50 0.2 0 0 70.11 71.15
  L 69.96 71.15
  A 0.22 0.22 0.0 0 0 69.74 71.36
  Z"
/>
</svg>
