<?xml version="1.0" encoding="UTF-8" standalone="no"?>
<svg xmlns="http://www.w3.org/2000/svg" version="1.2" baseProfile="tiny" viewBox="0.00 0.00 128.00 128.00">
<path fill="#000000" d="
  M 72.57 85.16
  Q 76.27 87.08 78.79 84.05
  Q 82.65 79.39 86.71 74.97
  C 88.75 72.75 90.68 72.80 93.25 74.39
  Q 102.72 80.25 112.56 85.39
  C 115.68 87.02 113.61 94.14 112.74 96.58
  C 110.14 103.84 100.83 108.25 93.81 109.28
  Q 88.07 110.13 80.35 107.96
  C 61.10 102.57 46.30 91.33 33.38 76.49
  Q 20.08 61.21 14.97 41.48
  Q 11.19 26.89 20.15 15.74
  C 24.22 10.66 29.46 9.09 35.73 9.23
  A 1.52 1.46 -24.3 0 1 36.63 9.55
  Q 37.92 10.57 38.51 11.72
  Q 43.86 21.98 49.89 31.53
  A 2.97 2.95 -46.7 0 1 49.97 34.57
  C 47.50 38.95 41.96 41.96 38.47 45.74
  C 36.97 47.36 37.27 48.64 38.16 50.43
  Q 49.52 73.28 72.57 85.16
  Z"
/>
</svg>
