<?xml version="1.0" encoding="UTF-8" standalone="no"?>
<svg xmlns="http://www.w3.org/2000/svg" version="1.2" baseProfile="tiny" viewBox="0.00 0.00 128.00 128.00">
<path fill="#000000" d="
  M 57.35 0.00
  L 70.77 0.00
  C 101.92 4.52 124.02 26.38 128.00 57.58
  L 128.00 70.51
  C 123.76 101.57 101.65 124.03 70.65 128.00
  L 57.23 128.00
  C 26.50 124.16 4.00 101.29 0.00 70.69
  L 0.00 57.47
  C 3.89 26.75 26.62 3.82 57.35 0.00
  Z
  M 20.83 99.11
  C 41.88 67.88 85.84 67.52 106.85 98.95
  Q 107.43 99.81 108.06 98.98
  C 137.15 60.48 109.93 5.84 61.52 7.84
  C 37.70 8.82 16.78 25.19 10.12 48.30
  Q 2.31 75.39 20.05 99.13
  A 0.48 0.48 0.0 0 0 20.83 99.11
  Z
  M 101.10 104.60
  C 83.55 75.98 43.63 77.05 26.64 104.85
  Q 26.39 105.26 26.75 105.58
  C 48.40 124.62 79.21 124.01 100.88 105.96
  Q 101.58 105.38 101.10 104.60
  Z"
/>
<path fill="#000000" d="
  M 87.12 46.39
  A 23.13 23.13 0.0 0 1 63.99 69.52
  A 23.13 23.13 0.0 0 1 40.86 46.39
  A 23.13 23.13 0.0 0 1 63.99 23.26
  A 23.13 23.13 0.0 0 1 87.12 46.39
  Z
  M 79.14 46.39
  A 15.15 15.15 0.0 0 0 63.99 31.24
  A 15.15 15.15 0.0 0 0 48.84 46.39
  A 15.15 15.15 0.0 0 0 63.99 61.54
  A 15.15 15.15 0.0 0 0 79.14 46.39
  Z"
/>
</svg>
