<?xml version="1.0" encoding="UTF-8" standalone="no"?>
<svg xmlns="http://www.w3.org/2000/svg" version="1.2" baseProfile="tiny" viewBox="0.00 0.00 128.00 128.00">
<path fill="#ffffff" d="
  M 102.00 38.41
  L 116.47 24.01
  A 0.49 0.49 0.0 0 1 117.28 24.22
  C 122.88 43.45 107.71 58.76 88.54 54.36
  Q 88.07 54.25 87.72 54.60
  L 55.28 87.22
  A 1.02 1.01 -31.3 0 0 55.03 88.22
  C 60.40 106.54 45.90 123.83 26.97 118.77
  Q 25.11 118.27 26.48 116.93
  L 39.29 104.34
  A 1.81 1.81 0.0 0 0 39.29 101.76
  L 26.71 89.30
  A 0.46 0.46 0.0 0 0 26.06 89.31
  L 11.82 103.78
  A 0.80 0.80 0.0 0 1 10.47 103.40
  C 6.02 84.42 20.42 68.69 39.31 73.58
  Q 39.82 73.71 40.19 73.34
  L 72.61 40.92
  A 1.50 1.49 -30.8 0 0 72.99 39.44
  C 67.49 20.62 82.45 4.45 101.66 9.32
  A 0.69 0.69 0.0 0 1 101.98 10.48
  L 87.99 24.58
  Q 87.60 24.97 87.98 25.36
  L 100.69 38.40
  A 0.93 0.93 0.0 0 0 102.00 38.41
  Z"
/>
</svg>
