<?xml version="1.0" encoding="UTF-8" standalone="no"?>
<svg xmlns="http://www.w3.org/2000/svg" version="1.2" baseProfile="tiny" viewBox="0.00 0.00 128.00 128.00">
<path fill="#000000" d="
  M 85.32 76.70
  L 111.55 102.92
  A 0.62 0.62 0.0 0 1 111.56 103.78
  L 104.12 111.57
  A 0.63 0.63 0.0 0 1 103.21 111.58
  L 76.93 85.31
  Q 76.55 84.92 76.08 85.21
  Q 58.86 96.09 41.41 89.82
  C 29.01 85.36 19.39 74.86 16.81 61.94
  C 11.20 33.75 36.80 9.94 64.51 17.45
  C 75.72 20.48 85.03 29.36 89.32 40.22
  Q 96.42 58.18 85.24 75.92
  Q 84.97 76.35 85.32 76.70
  Z
  M 84.08 54.05
  A 29.99 29.99 0.0 0 0 54.09 24.06
  A 29.99 29.99 0.0 0 0 24.10 54.05
  A 29.99 29.99 0.0 0 0 54.09 84.04
  A 29.99 29.99 0.0 0 0 84.08 54.05
  Z"
/>
</svg>
