<?xml version="1.0" encoding="UTF-8" standalone="no"?>
<svg xmlns="http://www.w3.org/2000/svg" version="1.2" baseProfile="tiny" viewBox="0.00 0.00 128.00 128.00">
<path fill="#000000" d="
  M 9.26 43.53
  C 0.90 18.01 35.17 -0.08 51.19 21.80
  C 53.36 24.77 50.49 28.80 47.08 27.81
  Q 45.88 27.46 44.01 25.44
  C 36.85 17.75 24.58 18.33 18.71 27.18
  C 11.62 37.86 19.15 50.85 31.33 52.04
  C 37.97 52.69 37.11 60.14 31.38 59.93
  C 21.34 59.57 12.36 53.00 9.26 43.53
  Z"
/>
<path fill="#000000" d="
  M 96.75 60.05
  C 91.39 60.61 89.59 52.80 96.88 51.98
  C 109.53 50.56 116.41 37.25 108.78 26.47
  C 102.83 18.07 90.61 18.16 83.85 25.57
  C 80.75 28.97 75.63 28.68 76.02 23.30
  Q 76.16 21.43 79.50 18.47
  C 100.17 0.22 130.39 24.27 116.55 48.08
  Q 110.42 58.62 96.75 60.05
  Z"
/>
<path fill="#000000" d="
  M 87.92 51.99
  A 23.93 23.93 0.0 0 1 63.99 75.92
  A 23.93 23.93 0.0 0 1 40.06 51.99
  A 23.93 23.93 0.0 0 1 63.99 28.06
  A 23.93 23.93 0.0 0 1 87.92 51.99
  Z
  M 79.95 51.99
  A 15.96 15.96 0.0 0 0 63.99 36.03
  A 15.96 15.96 0.0 0 0 48.03 51.99
  A 15.96 15.96 0.0 0 0 63.99 67.95
  A 15.96 15.96 0.0 0 0 79.95 51.99
  Z"
/>
<path fill="#000000" d="
  M 0.00 96.66
  L 0.00 93.95
  Q 2.31 73.82 20.84 66.16
  C 23.32 65.13 29.96 63.11 33.52 64.46
  C 37.99 66.16 36.15 71.50 31.51 71.91
  Q 13.36 73.52 8.42 91.09
  A 0.73 0.72 7.9 0 0 9.12 92.01
  Q 17.77 91.98 26.64 92.02
  C 33.78 92.05 33.60 99.94 27.31 99.97
  Q 15.41 100.04 3.50 99.98
  Q 0.97 99.97 0.00 96.66
  Z"
/>
<path fill="#000000" d="
  M 128.00 94.08
  L 128.00 96.77
  Q 126.94 99.97 124.50 99.98
  Q 112.92 100.03 101.36 99.98
  C 94.20 99.96 94.35 92.03 100.93 92.01
  Q 109.86 91.98 119.04 92.01
  A 0.59 0.58 82.4 0 0 119.60 91.27
  Q 114.63 72.96 95.17 71.82
  C 90.80 71.57 90.57 63.61 97.56 64.07
  C 114.14 65.14 126.47 77.57 128.00 94.08
  Z"
/>
<path fill="#000000" d="
  M 35.88 116.00
  A 3.77 3.77 0.0 0 1 32.11 112.23
  L 32.11 112.07
  A 31.95 31.56 90.0 0 1 63.67 80.12
  L 64.37 80.12
  A 31.95 31.56 90.0 0 1 95.93 112.07
  L 95.93 112.23
  A 3.77 3.77 0.0 0 1 92.16 116.00
  L 35.88 116.00
  Z
  M 87.52 107.38
  C 82.50 81.65 46.72 81.86 40.45 107.28
  A 0.59 0.59 0.0 0 0 41.02 108.00
  L 87.01 108.00
  A 0.52 0.52 0.0 0 0 87.52 107.38
  Z"
/>
</svg>
