<?xml version="1.0" encoding="UTF-8" standalone="no"?>
<svg xmlns="http://www.w3.org/2000/svg" version="1.2" baseProfile="tiny" viewBox="0.00 0.00 128.00 128.00">
<path fill="#000000" d="
  M 100.84 51.95
  C 103.97 52.50 110.64 52.65 113.04 54.72
  C 116.27 57.49 115.31 66.31 115.22 70.25
  C 115.05 78.12 106.56 77.42 101.28 78.25
  A 2.52 2.51 66.6 0 0 99.69 82.28
  C 103.76 87.51 109.61 92.26 103.34 98.98
  C 100.70 101.81 96.09 107.49 91.95 107.40
  C 88.77 107.33 83.69 102.69 81.19 100.75
  A 2.61 2.61 0.0 0 0 77.00 102.55
  C 76.46 107.94 76.72 116.47 68.99 116.55
  C 63.79 116.61 56.45 117.38 53.73 114.40
  C 51.62 112.07 51.33 105.44 50.95 102.41
  A 2.53 2.53 0.0 0 0 46.85 100.74
  Q 43.65 103.29 39.63 106.11
  C 33.51 110.40 26.42 101.22 23.09 97.16
  C 19.04 92.23 25.58 85.92 28.47 82.24
  A 2.51 2.51 0.0 0 0 26.85 78.21
  C 21.48 77.42 12.88 78.09 12.76 70.23
  C 12.70 66.37 11.80 58.12 14.54 55.17
  C 16.79 52.76 23.56 52.43 26.72 52.08
  A 2.50 2.50 0.0 0 0 28.43 48.07
  C 26.57 45.65 21.87 40.50 21.65 37.27
  C 21.39 33.36 27.89 27.77 30.60 25.12
  C 36.45 19.40 42.41 26.17 46.88 29.52
  A 2.59 2.58 -68.2 0 0 50.99 27.76
  C 51.67 22.25 50.98 14.82 58.50 14.13
  C 63.45 13.68 72.86 13.10 74.95 16.88
  C 76.42 19.53 76.67 25.05 77.08 27.99
  A 2.48 2.47 -22.4 0 0 81.02 29.63
  C 89.78 23.04 92.05 19.25 101.23 29.06
  C 105.23 33.32 108.42 36.04 104.50 41.39
  Q 101.84 45.02 99.39 48.15
  A 2.38 2.37 -65.9 0 0 100.84 51.95
  Z
  M 80.59 92.75
  A 0.64 0.64 0.0 0 1 81.22 92.83
  L 91.70 100.61
  A 0.64 0.64 0.0 0 0 92.53 100.56
  L 99.47 93.75
  A 0.64 0.64 0.0 0 0 99.54 92.91
  L 91.64 82.32
  A 0.64 0.64 0.0 0 1 91.57 81.68
  L 95.35 72.87
  A 0.64 0.64 0.0 0 1 95.85 72.49
  L 109.49 70.61
  A 0.64 0.64 0.0 0 0 110.05 69.97
  L 109.98 60.26
  A 0.64 0.64 0.0 0 0 109.43 59.63
  L 95.76 57.73
  A 0.64 0.64 0.0 0 1 95.26 57.34
  L 91.58 48.53
  A 0.64 0.64 0.0 0 1 91.66 47.90
  L 99.51 37.40
  A 0.64 0.64 0.0 0 0 99.45 36.57
  L 92.57 29.65
  A 0.64 0.64 0.0 0 0 91.73 29.59
  L 81.24 37.44
  A 0.64 0.64 0.0 0 1 80.60 37.52
  L 71.76 33.74
  A 0.64 0.64 0.0 0 1 71.38 33.24
  L 69.46 19.81
  A 0.64 0.64 0.0 0 0 68.83 19.26
  L 59.18 19.25
  A 0.64 0.64 0.0 0 0 58.54 19.80
  L 56.62 33.37
  A 0.64 0.64 0.0 0 1 56.23 33.87
  L 47.40 37.52
  A 0.64 0.64 0.0 0 1 46.77 37.44
  L 36.26 29.59
  A 0.64 0.64 0.0 0 0 35.42 29.66
  L 28.57 36.58
  A 0.64 0.64 0.0 0 0 28.51 37.41
  L 36.30 47.92
  A 0.64 0.64 0.0 0 1 36.38 48.55
  L 32.64 57.38
  A 0.64 0.64 0.0 0 1 32.14 57.76
  L 18.55 59.65
  A 0.64 0.64 0.0 0 0 18.00 60.29
  L 18.00 69.98
  A 0.64 0.64 0.0 0 0 18.55 70.62
  L 32.23 72.50
  A 0.64 0.64 0.0 0 1 32.73 72.89
  L 36.44 81.72
  A 0.64 0.64 0.0 0 1 36.36 82.35
  L 28.50 92.83
  A 0.64 0.64 0.0 0 0 28.56 93.66
  L 35.43 100.60
  A 0.64 0.64 0.0 0 0 36.27 100.67
  L 46.78 92.81
  A 0.64 0.64 0.0 0 1 47.42 92.74
  L 56.21 96.51
  A 0.64 0.64 0.0 0 1 56.59 97.01
  L 58.55 110.70
  A 0.64 0.64 0.0 0 0 59.18 111.25
  L 68.80 111.25
  A 0.64 0.64 0.0 0 0 69.44 110.70
  L 71.39 96.96
  A 0.64 0.64 0.0 0 1 71.77 96.46
  L 80.59 92.75
  Z"
/>
<path fill="#000000" d="
  M 86.23 64.69
  A 22.24 22.24 0.0 0 1 63.99 86.93
  A 22.24 22.24 0.0 0 1 41.75 64.69
  A 22.24 22.24 0.0 0 1 63.99 42.45
  A 22.24 22.24 0.0 0 1 86.23 64.69
  Z
  M 81.04 64.69
  A 17.04 17.04 0.0 0 0 64.00 47.65
  A 17.04 17.04 0.0 0 0 46.96 64.69
  A 17.04 17.04 0.0 0 0 64.00 81.73
  A 17.04 17.04 0.0 0 0 81.04 64.69
  Z"
/>
</svg>
