<?xml version="1.0" encoding="UTF-8" standalone="no"?>
<svg xmlns="http://www.w3.org/2000/svg" version="1.2" baseProfile="tiny" viewBox="0.00 0.00 128.00 128.00">
<path fill="#000000" d="
  M 128.00 68.82
  L 128.00 69.78
  Q 126.15 73.80 123.24 71.01
  Q 93.85 42.90 64.55 14.85
  A 0.78 0.77 44.7 0 0 63.48 14.85
  Q 34.49 42.66 5.35 70.45
  C 3.41 72.30 1.26 72.81 0.00 69.90
  L 0.00 68.30
  L 63.65 7.33
  A 0.55 0.54 -44.6 0 1 64.40 7.33
  Q 95.21 36.79 126.08 66.42
  Q 127.22 67.50 128.00 68.82
  Z"
/>
<path fill="#000000" d="
  M 106.52 36.96
  C 106.37 41.49 101.26 40.69 101.28 36.02
  Q 101.30 29.05 101.22 21.84
  Q 101.22 21.29 100.67 21.29
  Q 93.25 21.17 86.01 21.26
  C 83.87 21.28 82.14 20.15 82.94 17.81
  A 2.70 2.70 0.0 0 1 85.49 16.00
  L 106.24 16.00
  A 0.49 0.49 0.0 0 1 106.73 16.49
  Q 106.86 26.83 106.52 36.96
  Z"
/>
<path fill="#000000" d="
  M 111.96 128.00
  L 74.80 128.00
  L 74.78 94.05
  Q 74.78 93.25 73.98 93.25
  L 53.77 93.25
  A 0.47 0.47 0.0 0 0 53.30 93.72
  L 53.28 128.00
  L 16.04 128.00
  Q 15.92 100.40 16.06 72.81
  C 16.07 70.58 16.87 69.14 19.34 69.53
  A 2.27 2.26 -85.6 0 1 21.25 71.77
  L 21.25 122.00
  A 0.75 0.75 0.0 0 0 22.00 122.75
  L 47.50 122.75
  A 0.50 0.50 0.0 0 0 48.00 122.25
  L 48.00 88.75
  A 0.75 0.75 0.0 0 1 48.75 88.00
  L 79.50 88.00
  Q 80.00 88.00 80.00 88.50
  L 80.00 122.25
  A 0.50 0.50 0.0 0 0 80.50 122.75
  L 105.77 122.75
  A 0.98 0.98 0.0 0 0 106.75 121.77
  Q 106.75 98.59 106.76 75.07
  C 106.76 72.90 108.36 71.41 110.46 72.37
  A 2.62 2.62 0.0 0 1 111.99 74.75
  L 111.96 128.00
  Z"
/>
</svg>
