<?xml version="1.0" encoding="UTF-8" standalone="no"?>
<svg xmlns="http://www.w3.org/2000/svg" version="1.2" baseProfile="tiny" viewBox="0.00 0.00 128.00 128.00">
<path fill="#000000" d="
  M 52.27 41.30
  C 42.91 32.22 33.72 22.98 24.39 13.87
  C 18.09 7.72 8.39 13.71 11.06 21.38
  Q 11.76 23.37 14.83 26.45
  Q 31.38 43.01 47.94 59.56
  C 53.19 64.81 47.37 70.23 43.31 66.17
  Q 26.57 49.47 9.87 32.74
  C 4.22 27.08 1.14 22.03 3.41 14.41
  C 6.82 2.95 21.25 -0.59 29.78 7.71
  Q 35.68 13.45 56.77 34.67
  C 61.95 39.87 56.64 45.54 52.27 41.30
  Z"
/>
<path fill="#000000" d="
  M 28.61 104.16
  C 30.80 112.13 24.07 117.05 19.01 121.76
  C 16.87 123.76 14.92 123.17 12.86 121.30
  Q 7.90 116.80 3.86 112.31
  A 3.76 3.75 46.3 0 1 3.97 107.16
  C 9.09 101.98 13.91 94.63 22.49 97.65
  A 0.91 0.90 32.0 0 0 23.43 97.44
  L 57.56 63.31
  A 0.62 0.61 -45.3 0 0 57.56 62.44
  L 52.09 56.96
  A 3.48 3.48 0.0 0 1 52.09 52.04
  Q 72.59 31.52 93.24 10.89
  Q 97.24 6.90 99.68 5.69
  C 113.10 -0.97 127.65 13.55 120.91 26.96
  Q 119.66 29.45 114.76 34.36
  Q 94.92 54.22 75.06 74.06
  C 71.12 78.00 66.61 71.29 64.07 69.01
  Q 63.57 68.56 63.09 69.04
  L 28.84 103.28
  Q 28.47 103.65 28.61 104.16
  Z
  M 61.43 55.06
  L 71.56 65.19
  A 0.81 0.81 0.0 0 0 72.70 65.19
  L 111.95 25.94
  A 8.39 7.92 -45.0 0 0 112.28 14.41
  L 112.21 14.34
  A 8.39 7.92 -45.0 0 0 100.68 14.67
  L 61.43 53.92
  A 0.81 0.81 0.0 0 0 61.43 55.06
  Z
  M 13.15 110.30
  L 15.68 112.83
  A 0.80 0.80 0.0 0 0 16.82 112.83
  L 20.08 109.57
  A 2.91 2.44 -45.0 0 0 20.41 105.78
  L 20.20 105.57
  A 2.91 2.44 -45.0 0 0 16.41 105.90
  L 13.15 109.16
  A 0.80 0.80 0.0 0 0 13.15 110.30
  Z"
/>
<path fill="#000000" d="
  M 112.63 93.35
  A 0.43 0.42 -80.6 0 0 113.31 92.86
  Q 108.36 82.48 96.24 83.53
  C 95.30 83.62 94.15 83.24 93.40 82.50
  Q 89.02 78.17 84.68 73.80
  C 82.23 71.35 85.13 66.73 88.64 67.56
  C 91.26 68.18 95.23 73.17 97.30 75.13
  A 1.29 1.28 66.1 0 0 98.17 75.47
  C 112.26 75.35 123.32 86.39 122.62 100.51
  C 122.02 112.42 109.69 100.67 106.15 98.33
  A 0.77 0.76 -50.9 0 0 105.19 98.43
  L 97.97 105.67
  A 0.70 0.70 0.0 0 0 97.89 106.58
  C 99.83 109.27 110.35 121.13 102.69 122.69
  C 88.05 125.66 75.01 113.39 75.04 98.43
  A 1.19 1.16 -67.5 0 0 74.71 97.61
  Q 67.77 90.58 60.81 83.71
  C 57.17 80.11 62.40 74.02 67.63 79.25
  Q 74.97 86.60 82.33 93.95
  A 2.57 2.57 0.0 0 1 83.07 96.02
  Q 81.84 108.14 92.34 113.73
  A 0.34 0.34 0.0 0 0 92.78 113.24
  L 88.90 107.49
  A 3.48 3.47 50.2 0 1 89.30 103.10
  Q 95.70 96.61 102.21 90.21
  C 105.48 87.00 110.17 90.93 112.63 93.35
  Z"
/>
</svg>
