<?xml version="1.0" encoding="UTF-8" standalone="no"?>
<svg xmlns="http://www.w3.org/2000/svg" version="1.2" baseProfile="tiny" viewBox="0.00 0.00 128.00 128.00">
<path fill="#000000" d="
  M 50.48 0.00
  L 77.43 0.00
  Q 80.29 3.86 79.03 11.82
  A 0.80 0.80 0.0 0 0 79.82 12.75
  L 113.74 12.75
  A 2.76 2.76 0.0 0 1 116.50 15.51
  Q 116.50 69.99 116.49 124.60
  C 116.49 126.33 115.63 127.32 114.18 128.00
  L 13.95 128.00
  Q 11.50 127.07 11.50 125.50
  Q 11.50 70.52 11.50 15.74
  A 2.99 2.99 0.0 0 1 14.49 12.75
  L 47.98 12.75
  A 0.98 0.97 85.7 0 0 48.94 11.62
  Q 47.77 3.96 50.48 0.00
  Z
  M 72.9843 7.0257
  A 0.55 0.55 0.0 0 0 72.4353 6.4747
  L 55.5753 6.4453
  A 0.55 0.55 0.0 0 0 55.0243 6.9943
  L 55.0157 11.9343
  A 0.55 0.55 0.0 0 0 55.5647 12.4853
  L 72.4247 12.5147
  A 0.55 0.55 0.0 0 0 72.9757 11.9657
  L 72.9843 7.0257
  Z
  M 109.58 121.50
  A 0.44 0.43 20.3 0 0 109.91 121.35
  Q 110.21 121.02 110.21 120.50
  Q 110.25 70.04 110.25 19.75
  A 0.75 0.74 -90.0 0 0 109.51 19.00
  L 98.96 19.00
  Q 98.30 19.00 98.27 19.66
  C 98.18 21.83 99.11 27.74 95.50 27.74
  Q 64.65 27.76 33.81 27.74
  C 28.39 27.74 29.90 23.18 29.71 19.65
  Q 29.68 19.00 29.03 19.00
  L 18.75 19.00
  A 1.00 1.00 0.0 0 0 17.75 20.00
  L 17.75 121.04
  A 0.47 0.47 0.0 0 0 18.22 121.51
  L 109.58 121.50
  Z"
/>
<rect fill="#000000" x="-30.67" y="-3.24" transform="translate(64.24,44.00) rotate(-0.1)" width="61.34" height="6.48" rx="3.18"/>
<rect fill="#000000" x="33.56" y="60.51" width="61.36" height="6.48" rx="3.19"/>
<rect fill="#000000" x="33.54" y="80.27" width="61.38" height="6.48" rx="3.19"/>
<rect fill="#000000" x="33.05" y="100.25" width="61.42" height="6.24" rx="3.07"/>
</svg>
