<?xml version="1.0" encoding="UTF-8" standalone="no"?>
<svg xmlns="http://www.w3.org/2000/svg" version="1.2" baseProfile="tiny" viewBox="0.00 0.00 320.00 320.00">
<g stroke-width="2.00" fill="none" stroke-linecap="butt">
<path stroke="#87b37a" vector-effect="non-scaling-stroke" d="
  M 159.10 109.76
  C 167.50 113.78 168.97 108.43 169.01 101.63
  Q 169.06 93.31 168.87 84.99"
/>
<path stroke="#1a8cc2" vector-effect="non-scaling-stroke" d="
  M 168.87 84.99
  Q 169.73 81.55 165.37 80.27
  C 153.14 76.68 155.60 101.19 156.48 107.26
  Q 156.72 108.92 159.10 109.76"
/>
<path stroke="#91b14c" vector-effect="non-scaling-stroke" d="
  M 168.87 84.99
  C 166.66 81.48 162.44 79.43 159.62 83.13
  Q 158.37 84.78 158.24 85.75
  Q 156.61 98.54 159.10 109.76"
/>
<path stroke="#87b37a" vector-effect="non-scaling-stroke" d="
  M 227.1224 115.2240
  A 5.01 5.01 0.0 0 0 227.0977 108.1389
  L 226.5158 107.5611
  A 5.01 5.01 0.0 0 0 219.4307 107.5858
  L 205.5776 121.5360
  A 5.01 5.01 0.0 0 0 205.6023 128.6211
  L 206.1842 129.1989
  A 5.01 5.01 0.0 0 0 213.2693 129.1742
  L 227.1224 115.2240"
/>
<path stroke="#87b37a" vector-effect="non-scaling-stroke" d="
  M 107.9964 107.9202
  A 5.49 5.49 0.0 0 0 100.2343 107.7440
  L 99.9741 107.9928
  A 5.49 5.49 0.0 0 0 99.7979 115.7548
  L 112.7036 129.2598
  A 5.49 5.49 0.0 0 0 120.4657 129.4360
  L 120.7259 129.1872
  A 5.49 5.49 0.0 0 0 120.9021 121.4252
  L 107.9964 107.9202"
/>
<path stroke="#1a8cc2" vector-effect="non-scaling-stroke" d="
  M 113.90 166.41
  Q 112.20 171.58 112.82 176.94
  Q 112.95 178.02 114.25 177.78"
/>
<path stroke="#87b37a" vector-effect="non-scaling-stroke" d="
  M 114.25 177.78
  Q 117.49 202.14 138.37 215.11
  Q 149.27 221.88 160.26 221.96
  Q 182.98 222.14 205.99 222.19
  A 2.83 2.82 82.0 0 1 208.69 224.23
  Q 210.42 230.21 217.59 232.50"
/>
<path stroke="#1a8cc2" vector-effect="non-scaling-stroke" d="
  M 217.59 232.50
  Q 218.75 234.94 223.29 234.90
  Q 223.83 234.90 224.22 235.29
  Q 225.56 236.66 227.31 237.34
  Q 227.82 237.54 228.20 237.94
  Q 229.58 239.40 231.48 238.39
  Q 231.92 238.15 231.96 237.65
  L 232.19 234.47"
/>
<path stroke="#87b37a" vector-effect="non-scaling-stroke" d="
  M 232.19 234.47
  L 232.40 229.74
  A 0.62 0.62 0.0 0 1 233.00 229.15
  L 243.27 228.82
  Q 243.91 228.80 244.12 228.20
  Q 244.61 226.76 243.93 224.35"
/>
<path stroke="#1a8cc2" vector-effect="non-scaling-stroke" d="
  M 243.93 224.35
  Q 244.34 223.64 243.02 222.73
  A 0.52 0.52 0.0 0 0 242.78 222.65
  L 234.94 222.25
  A 0.55 0.54 84.2 0 1 234.44 221.84
  L 232.99 216.62
  A 0.58 0.55 50.9 0 1 233.02 216.22
  Q 234.11 213.73 232.06 212.20"
/>
<path stroke="#87b37a" vector-effect="non-scaling-stroke" d="
  M 232.06 212.20
  Q 231.47 210.27 233.00 210.23
  Q 238.02 210.11 243.08 209.77
  Q 243.58 209.74 243.79 209.28
  C 246.47 203.57 235.44 204.98 232.93 205.00
  A 0.63 0.62 86.9 0 1 232.31 204.44
  Q 232.05 201.71 231.88 198.94
  C 231.75 196.72 229.97 195.45 228.17 196.94
  Q 224.26 200.17 220.76 200.46
  C 213.95 201.03 211.03 205.27 207.53 210.34
  A 2.20 2.20 0.0 0 1 205.69 211.28
  Q 191.07 211.05 176.67 210.93
  Q 159.54 210.79 156.72 210.29
  C 121.93 204.09 113.10 157.37 142.71 138.68
  C 167.00 123.35 199.46 138.94 201.77 167.98
  C 202.13 172.45 203.07 178.27 208.96 177.12
  Q 213.17 176.31 213.17 171.23
  C 213.16 135.72 175.97 110.71 143.30 126.01
  Q 118.41 137.66 113.90 166.41"
/>
<path stroke="#91b14c" vector-effect="non-scaling-stroke" d="
  M 232.06 212.20
  L 232.06 223.40
  A 0.57 0.57 0.0 0 0 232.69 223.97
  Q 238.67 223.36 243.93 224.35"
/>
<path stroke="#91b14c" vector-effect="non-scaling-stroke" d="
  M 232.19 234.47
  L 231.77 236.63
  A 1.59 1.59 0.0 0 1 229.38 237.69
  Q 226.95 236.20 225.61 233.75
  A 0.99 0.98 78.4 0 0 224.84 233.24
  L 217.59 232.50"
/>
<path stroke="#91b14c" vector-effect="non-scaling-stroke" d="
  M 114.25 177.78
  L 113.90 166.41"
/>
<path stroke="#87b37a" vector-effect="non-scaling-stroke" d="
  M 103.2196 171.5942
  A 5.57 5.57 0.0 0 0 97.6398 166.0339
  L 79.1799 166.0661
  A 5.57 5.57 0.0 0 0 73.6196 171.6458
  L 73.6204 172.1258
  A 5.57 5.57 0.0 0 0 79.2002 177.6861
  L 97.6601 177.6539
  A 5.57 5.57 0.0 0 0 103.2204 172.0742
  L 103.2196 171.5942"
/>
<path stroke="#87b37a" vector-effect="non-scaling-stroke" d="
  M 120.9558 222.5686
  A 5.26 5.26 0.0 0 0 120.8389 215.1307
  L 120.3219 214.6297
  A 5.26 5.26 0.0 0 0 112.8840 214.7465
  L 99.5642 228.4914
  A 5.26 5.26 0.0 0 0 99.6811 235.9293
  L 100.1981 236.4303
  A 5.26 5.26 0.0 0 0 107.6360 236.3135
  L 120.9558 222.5686"
/>
</g>
<path fill="#108df0" d="
  M 313.6001 239.8101
  A 76.29 76.29 0.0 0 1 237.1771 315.9668
  L 80.1573 315.6927
  A 76.29 76.29 0.0 0 1 4.0006 239.2697
  L 4.2799 79.2299
  A 76.29 76.29 0.0 0 1 80.7029 3.0732
  L 237.7227 3.3473
  A 76.29 76.29 0.0 0 1 313.8794 79.7703
  L 313.6001 239.8101
  Z
  M 159.10 109.76
  C 167.50 113.78 168.97 108.43 169.01 101.63
  Q 169.06 93.31 168.87 84.99
  Q 169.73 81.55 165.37 80.27
  C 153.14 76.68 155.60 101.19 156.48 107.26
  Q 156.72 108.92 159.10 109.76
  Z
  M 227.1224 115.2240
  A 5.01 5.01 0.0 0 0 227.0977 108.1389
  L 226.5158 107.5611
  A 5.01 5.01 0.0 0 0 219.4307 107.5858
  L 205.5776 121.5360
  A 5.01 5.01 0.0 0 0 205.6023 128.6211
  L 206.1842 129.1989
  A 5.01 5.01 0.0 0 0 213.2693 129.1742
  L 227.1224 115.2240
  Z
  M 107.9964 107.9202
  A 5.49 5.49 0.0 0 0 100.2343 107.7440
  L 99.9741 107.9928
  A 5.49 5.49 0.0 0 0 99.7979 115.7548
  L 112.7036 129.2598
  A 5.49 5.49 0.0 0 0 120.4657 129.4360
  L 120.7259 129.1872
  A 5.49 5.49 0.0 0 0 120.9021 121.4252
  L 107.9964 107.9202
  Z
  M 113.90 166.41
  Q 112.20 171.58 112.82 176.94
  Q 112.95 178.02 114.25 177.78
  Q 117.49 202.14 138.37 215.11
  Q 149.27 221.88 160.26 221.96
  Q 182.98 222.14 205.99 222.19
  A 2.83 2.82 82.0 0 1 208.69 224.23
  Q 210.42 230.21 217.59 232.50
  Q 218.75 234.94 223.29 234.90
  Q 223.83 234.90 224.22 235.29
  Q 225.56 236.66 227.31 237.34
  Q 227.82 237.54 228.20 237.94
  Q 229.58 239.40 231.48 238.39
  Q 231.92 238.15 231.96 237.65
  L 232.19 234.47
  L 232.40 229.74
  A 0.62 0.62 0.0 0 1 233.00 229.15
  L 243.27 228.82
  Q 243.91 228.80 244.12 228.20
  Q 244.61 226.76 243.93 224.35
  Q 244.34 223.64 243.02 222.73
  A 0.52 0.52 0.0 0 0 242.78 222.65
  L 234.94 222.25
  A 0.55 0.54 84.2 0 1 234.44 221.84
  L 232.99 216.62
  A 0.58 0.55 50.9 0 1 233.02 216.22
  Q 234.11 213.73 232.06 212.20
  Q 231.47 210.27 233.00 210.23
  Q 238.02 210.11 243.08 209.77
  Q 243.58 209.74 243.79 209.28
  C 246.47 203.57 235.44 204.98 232.93 205.00
  A 0.63 0.62 86.9 0 1 232.31 204.44
  Q 232.05 201.71 231.88 198.94
  C 231.75 196.72 229.97 195.45 228.17 196.94
  Q 224.26 200.17 220.76 200.46
  C 213.95 201.03 211.03 205.27 207.53 210.34
  A 2.20 2.20 0.0 0 1 205.69 211.28
  Q 191.07 211.05 176.67 210.93
  Q 159.54 210.79 156.72 210.29
  C 121.93 204.09 113.10 157.37 142.71 138.68
  C 167.00 123.35 199.46 138.94 201.77 167.98
  C 202.13 172.45 203.07 178.27 208.96 177.12
  Q 213.17 176.31 213.17 171.23
  C 213.16 135.72 175.97 110.71 143.30 126.01
  Q 118.41 137.66 113.90 166.41
  Z
  M 103.2196 171.5942
  A 5.57 5.57 0.0 0 0 97.6398 166.0339
  L 79.1799 166.0661
  A 5.57 5.57 0.0 0 0 73.6196 171.6458
  L 73.6204 172.1258
  A 5.57 5.57 0.0 0 0 79.2002 177.6861
  L 97.6601 177.6539
  A 5.57 5.57 0.0 0 0 103.2204 172.0742
  L 103.2196 171.5942
  Z
  M 120.9558 222.5686
  A 5.26 5.26 0.0 0 0 120.8389 215.1307
  L 120.3219 214.6297
  A 5.26 5.26 0.0 0 0 112.8840 214.7465
  L 99.5642 228.4914
  A 5.26 5.26 0.0 0 0 99.6811 235.9293
  L 100.1981 236.4303
  A 5.26 5.26 0.0 0 0 107.6360 236.3135
  L 120.9558 222.5686
  Z"
/>
<path fill="#238a94" d="
  M 168.87 84.99
  C 166.66 81.48 162.44 79.43 159.62 83.13
  Q 158.37 84.78 158.24 85.75
  Q 156.61 98.54 159.10 109.76
  Q 156.72 108.92 156.48 107.26
  C 155.60 101.19 153.14 76.68 165.37 80.27
  Q 169.73 81.55 168.87 84.99
  Z"
/>
<path fill="#fed803" d="
  M 168.87 84.99
  Q 169.06 93.31 169.01 101.63
  C 168.97 108.43 167.50 113.78 159.10 109.76
  Q 156.61 98.54 158.24 85.75
  Q 158.37 84.78 159.62 83.13
  C 162.44 79.43 166.66 81.48 168.87 84.99
  Z"
/>
<rect fill="#fed803" x="-5.42" y="-14.84" transform="translate(216.35,118.38) rotate(44.8)" width="10.84" height="29.68" rx="5.01"/>
<rect fill="#fed803" x="-5.67" y="-14.83" transform="translate(110.35,118.59) rotate(-43.7)" width="11.34" height="29.66" rx="5.49"/>
<path fill="#fed803" d="
  M 232.06 212.20
  L 232.06 223.40
  A 0.57 0.57 0.0 0 0 232.69 223.97
  Q 238.67 223.36 243.93 224.35
  Q 244.61 226.76 244.12 228.20
  Q 243.91 228.80 243.27 228.82
  L 233.00 229.15
  A 0.62 0.62 0.0 0 0 232.40 229.74
  L 232.19 234.47
  L 231.77 236.63
  A 1.59 1.59 0.0 0 1 229.38 237.69
  Q 226.95 236.20 225.61 233.75
  A 0.99 0.98 78.4 0 0 224.84 233.24
  L 217.59 232.50
  Q 210.42 230.21 208.69 224.23
  A 2.83 2.82 82.0 0 0 205.99 222.19
  Q 182.98 222.14 160.26 221.96
  Q 149.27 221.88 138.37 215.11
  Q 117.49 202.14 114.25 177.78
  L 113.90 166.41
  Q 118.41 137.66 143.30 126.01
  C 175.97 110.71 213.16 135.72 213.17 171.23
  Q 213.17 176.31 208.96 177.12
  C 203.07 178.27 202.13 172.45 201.77 167.98
  C 199.46 138.94 167.00 123.35 142.71 138.68
  C 113.10 157.37 121.93 204.09 156.72 210.29
  Q 159.54 210.79 176.67 210.93
  Q 191.07 211.05 205.69 211.28
  A 2.20 2.20 0.0 0 0 207.53 210.34
  C 211.03 205.27 213.95 201.03 220.76 200.46
  Q 224.26 200.17 228.17 196.94
  C 229.97 195.45 231.75 196.72 231.88 198.94
  Q 232.05 201.71 232.31 204.44
  A 0.63 0.62 86.9 0 0 232.93 205.00
  C 235.44 204.98 246.47 203.57 243.79 209.28
  Q 243.58 209.74 243.08 209.77
  Q 238.02 210.11 233.00 210.23
  Q 231.47 210.27 232.06 212.20
  Z"
/>
<rect fill="#fed803" x="-14.80" y="-5.81" transform="translate(88.42,171.86) rotate(-0.1)" width="29.60" height="11.62" rx="5.57"/>
<path fill="#238a94" d="
  M 113.90 166.41
  L 114.25 177.78
  Q 112.95 178.02 112.82 176.94
  Q 112.20 171.58 113.90 166.41
  Z"
/>
<path fill="#238a94" d="
  M 232.06 212.20
  Q 234.11 213.73 233.02 216.22
  A 0.58 0.55 50.9 0 0 232.99 216.62
  L 234.44 221.84
  A 0.55 0.54 84.2 0 0 234.94 222.25
  L 242.78 222.65
  A 0.52 0.52 0.0 0 1 243.02 222.73
  Q 244.34 223.64 243.93 224.35
  Q 238.67 223.36 232.69 223.97
  A 0.57 0.57 0.0 0 1 232.06 223.40
  L 232.06 212.20
  Z"
/>
<rect fill="#fed803" x="-5.62" y="-14.83" transform="translate(110.26,225.53) rotate(44.1)" width="11.24" height="29.66" rx="5.26"/>
<path fill="#238a94" d="
  M 217.59 232.50
  L 224.84 233.24
  A 0.99 0.98 78.4 0 1 225.61 233.75
  Q 226.95 236.20 229.38 237.69
  A 1.59 1.59 0.0 0 0 231.77 236.63
  L 232.19 234.47
  L 231.96 237.65
  Q 231.92 238.15 231.48 238.39
  Q 229.58 239.40 228.20 237.94
  Q 227.82 237.54 227.31 237.34
  Q 225.56 236.66 224.22 235.29
  Q 223.83 234.90 223.29 234.90
  Q 218.75 234.94 217.59 232.50
  Z"
/>
</svg>
